<?xml version="1.0" standalone="no"?>
<svg xmlns="http://www.w3.org/2000/svg" width="1000" height="1300" viewBox="0 0 1000 1300"><defs><linearGradient id="background-color" gradientUnits="userSpaceOnUse" x1="112" y1="501" x2="888" y2="501"><stop offset="0%" stop-color="#ffffff"/><stop offset="100%" stop-color="#ffffff"/></linearGradient><clipPath id="clip-path-dot-color"><rect x="152" y="392" width="24" height="24" transform="rotate(0,164,404)"/><rect x="152" y="440" width="24" height="24" transform="rotate(0,164,452)"/><rect x="152" y="464" width="24" height="24" transform="rotate(0,164,476)"/><rect x="152" y="512" width="24" height="24" transform="rotate(0,164,524)"/><rect x="152" y="536" width="24" height="24" transform="rotate(0,164,548)"/><rect x="152" y="560" width="24" height="24" transform="rotate(0,164,572)"/><rect x="152" y="584" width="24" height="24" transform="rotate(0,164,596)"/><rect x="152" y="608" width="24" height="24" transform="rotate(0,164,620)"/><rect x="176" y="344" width="24" height="24" transform="rotate(0,188,356)"/><rect x="176" y="416" width="24" height="24" transform="rotate(0,188,428)"/><rect x="176" y="440" width="24" height="24" transform="rotate(0,188,452)"/><rect x="176" y="464" width="24" height="24" transform="rotate(0,188,476)"/><rect x="176" y="512" width="24" height="24" transform="rotate(0,188,524)"/><rect x="176" y="560" width="24" height="24" transform="rotate(0,188,572)"/><rect x="176" y="632" width="24" height="24" transform="rotate(0,188,644)"/><rect x="200" y="488" width="24" height="24" transform="rotate(0,212,500)"/><rect x="200" y="584" width="24" height="24" transform="rotate(0,212,596)"/><rect x="200" y="632" width="24" height="24" transform="rotate(0,212,644)"/><rect x="224" y="344" width="24" height="24" transform="rotate(0,236,356)"/><rect x="224" y="368" width="24" height="24" transform="rotate(0,236,380)"/><rect x="224" y="416" width="24" height="24" transform="rotate(0,236,428)"/><rect x="224" y="536" width="24" height="24" transform="rotate(0,236,548)"/><rect x="224" y="560" width="24" height="24" transform="rotate(0,236,572)"/><rect x="224" y="608" width="24" height="24" transform="rotate(0,236,620)"/><rect x="224" y="632" width="24" height="24" transform="rotate(0,236,644)"/><rect x="248" y="344" width="24" height="24" transform="rotate(0,260,356)"/><rect x="248" y="368" width="24" height="24" transform="rotate(0,260,380)"/><rect x="248" y="392" width="24" height="24" transform="rotate(0,260,404)"/><rect x="248" y="464" width="24" height="24" transform="rotate(0,260,476)"/><rect x="248" y="488" width="24" height="24" transform="rotate(0,260,500)"/><rect x="248" y="512" width="24" height="24" transform="rotate(0,260,524)"/><rect x="248" y="560" width="24" height="24" transform="rotate(0,260,572)"/><rect x="248" y="608" width="24" height="24" transform="rotate(0,260,620)"/><rect x="272" y="368" width="24" height="24" transform="rotate(0,284,380)"/><rect x="272" y="392" width="24" height="24" transform="rotate(0,284,404)"/><rect x="272" y="440" width="24" height="24" transform="rotate(0,284,452)"/><rect x="272" y="536" width="24" height="24" transform="rotate(0,284,548)"/><rect x="272" y="560" width="24" height="24" transform="rotate(0,284,572)"/><rect x="272" y="584" width="24" height="24" transform="rotate(0,284,596)"/><rect x="296" y="344" width="24" height="24" transform="rotate(0,308,356)"/><rect x="296" y="392" width="24" height="24" transform="rotate(0,308,404)"/><rect x="296" y="440" width="24" height="24" transform="rotate(0,308,452)"/><rect x="296" y="488" width="24" height="24" transform="rotate(0,308,500)"/><rect x="296" y="536" width="24" height="24" transform="rotate(0,308,548)"/><rect x="296" y="584" width="24" height="24" transform="rotate(0,308,596)"/><rect x="296" y="632" width="24" height="24" transform="rotate(0,308,644)"/><rect x="320" y="344" width="24" height="24" transform="rotate(0,332,356)"/><rect x="320" y="368" width="24" height="24" transform="rotate(0,332,380)"/><rect x="320" y="440" width="24" height="24" transform="rotate(0,332,452)"/><rect x="320" y="488" width="24" height="24" transform="rotate(0,332,500)"/><rect x="320" y="512" width="24" height="24" transform="rotate(0,332,524)"/><rect x="320" y="536" width="24" height="24" transform="rotate(0,332,548)"/><rect x="320" y="632" width="24" height="24" transform="rotate(0,332,644)"/><rect x="344" y="176" width="24" height="24" transform="rotate(0,356,188)"/><rect x="344" y="224" width="24" height="24" transform="rotate(0,356,236)"/><rect x="344" y="248" width="24" height="24" transform="rotate(0,356,260)"/><rect x="344" y="272" width="24" height="24" transform="rotate(0,356,284)"/><rect x="344" y="296" width="24" height="24" transform="rotate(0,356,308)"/><rect x="344" y="344" width="24" height="24" transform="rotate(0,356,356)"/><rect x="344" y="416" width="24" height="24" transform="rotate(0,356,428)"/><rect x="344" y="488" width="24" height="24" transform="rotate(0,356,500)"/><rect x="344" y="536" width="24" height="24" transform="rotate(0,356,548)"/><rect x="344" y="584" width="24" height="24" transform="rotate(0,356,596)"/><rect x="344" y="608" width="24" height="24" transform="rotate(0,356,620)"/><rect x="344" y="656" width="24" height="24" transform="rotate(0,356,668)"/><rect x="344" y="680" width="24" height="24" transform="rotate(0,356,692)"/><rect x="344" y="728" width="24" height="24" transform="rotate(0,356,740)"/><rect x="344" y="752" width="24" height="24" transform="rotate(0,356,764)"/><rect x="344" y="800" width="24" height="24" transform="rotate(0,356,812)"/><rect x="368" y="176" width="24" height="24" transform="rotate(0,380,188)"/><rect x="368" y="200" width="24" height="24" transform="rotate(0,380,212)"/><rect x="368" y="272" width="24" height="24" transform="rotate(0,380,284)"/><rect x="368" y="320" width="24" height="24" transform="rotate(0,380,332)"/><rect x="368" y="344" width="24" height="24" transform="rotate(0,380,356)"/><rect x="368" y="368" width="24" height="24" transform="rotate(0,380,380)"/><rect x="368" y="392" width="24" height="24" transform="rotate(0,380,404)"/><rect x="368" y="440" width="24" height="24" transform="rotate(0,380,452)"/><rect x="368" y="464" width="24" height="24" transform="rotate(0,380,476)"/><rect x="368" y="488" width="24" height="24" transform="rotate(0,380,500)"/><rect x="368" y="512" width="24" height="24" transform="rotate(0,380,524)"/><rect x="368" y="560" width="24" height="24" transform="rotate(0,380,572)"/><rect x="368" y="632" width="24" height="24" transform="rotate(0,380,644)"/><rect x="368" y="656" width="24" height="24" transform="rotate(0,380,668)"/><rect x="368" y="704" width="24" height="24" transform="rotate(0,380,716)"/><rect x="368" y="728" width="24" height="24" transform="rotate(0,380,740)"/><rect x="368" y="752" width="24" height="24" transform="rotate(0,380,764)"/><rect x="368" y="776" width="24" height="24" transform="rotate(0,380,788)"/><rect x="368" y="800" width="24" height="24" transform="rotate(0,380,812)"/><rect x="392" y="248" width="24" height="24" transform="rotate(0,404,260)"/><rect x="392" y="296" width="24" height="24" transform="rotate(0,404,308)"/><rect x="392" y="344" width="24" height="24" transform="rotate(0,404,356)"/><rect x="392" y="392" width="24" height="24" transform="rotate(0,404,404)"/><rect x="392" y="440" width="24" height="24" transform="rotate(0,404,452)"/><rect x="392" y="464" width="24" height="24" transform="rotate(0,404,476)"/><rect x="392" y="512" width="24" height="24" transform="rotate(0,404,524)"/><rect x="392" y="560" width="24" height="24" transform="rotate(0,404,572)"/><rect x="392" y="584" width="24" height="24" transform="rotate(0,404,596)"/><rect x="392" y="632" width="24" height="24" transform="rotate(0,404,644)"/><rect x="392" y="656" width="24" height="24" transform="rotate(0,404,668)"/><rect x="392" y="680" width="24" height="24" transform="rotate(0,404,692)"/><rect x="392" y="704" width="24" height="24" transform="rotate(0,404,716)"/><rect x="416" y="176" width="24" height="24" transform="rotate(0,428,188)"/><rect x="416" y="344" width="24" height="24" transform="rotate(0,428,356)"/><rect x="416" y="392" width="24" height="24" transform="rotate(0,428,404)"/><rect x="416" y="416" width="24" height="24" transform="rotate(0,428,428)"/><rect x="416" y="464" width="24" height="24" transform="rotate(0,428,476)"/><rect x="416" y="560" width="24" height="24" transform="rotate(0,428,572)"/><rect x="416" y="608" width="24" height="24" transform="rotate(0,428,620)"/><rect x="416" y="704" width="24" height="24" transform="rotate(0,428,716)"/><rect x="416" y="752" width="24" height="24" transform="rotate(0,428,764)"/><rect x="416" y="824" width="24" height="24" transform="rotate(0,428,836)"/><rect x="440" y="176" width="24" height="24" transform="rotate(0,452,188)"/><rect x="440" y="224" width="24" height="24" transform="rotate(0,452,236)"/><rect x="440" y="272" width="24" height="24" transform="rotate(0,452,284)"/><rect x="440" y="296" width="24" height="24" transform="rotate(0,452,308)"/><rect x="440" y="320" width="24" height="24" transform="rotate(0,452,332)"/><rect x="440" y="344" width="24" height="24" transform="rotate(0,452,356)"/><rect x="440" y="368" width="24" height="24" transform="rotate(0,452,380)"/><rect x="440" y="392" width="24" height="24" transform="rotate(0,452,404)"/><rect x="440" y="464" width="24" height="24" transform="rotate(0,452,476)"/><rect x="440" y="512" width="24" height="24" transform="rotate(0,452,524)"/><rect x="440" y="584" width="24" height="24" transform="rotate(0,452,596)"/><rect x="440" y="656" width="24" height="24" transform="rotate(0,452,668)"/><rect x="440" y="680" width="24" height="24" transform="rotate(0,452,692)"/><rect x="440" y="752" width="24" height="24" transform="rotate(0,452,764)"/><rect x="440" y="800" width="24" height="24" transform="rotate(0,452,812)"/><rect x="464" y="152" width="24" height="24" transform="rotate(0,476,164)"/><rect x="464" y="200" width="24" height="24" transform="rotate(0,476,212)"/><rect x="464" y="248" width="24" height="24" transform="rotate(0,476,260)"/><rect x="464" y="272" width="24" height="24" transform="rotate(0,476,284)"/><rect x="464" y="320" width="24" height="24" transform="rotate(0,476,332)"/><rect x="464" y="344" width="24" height="24" transform="rotate(0,476,356)"/><rect x="464" y="368" width="24" height="24" transform="rotate(0,476,380)"/><rect x="464" y="416" width="24" height="24" transform="rotate(0,476,428)"/><rect x="464" y="464" width="24" height="24" transform="rotate(0,476,476)"/><rect x="464" y="512" width="24" height="24" transform="rotate(0,476,524)"/><rect x="464" y="560" width="24" height="24" transform="rotate(0,476,572)"/><rect x="464" y="584" width="24" height="24" transform="rotate(0,476,596)"/><rect x="464" y="680" width="24" height="24" transform="rotate(0,476,692)"/><rect x="464" y="728" width="24" height="24" transform="rotate(0,476,740)"/><rect x="464" y="776" width="24" height="24" transform="rotate(0,476,788)"/><rect x="464" y="800" width="24" height="24" transform="rotate(0,476,812)"/><rect x="464" y="824" width="24" height="24" transform="rotate(0,476,836)"/><rect x="488" y="176" width="24" height="24" transform="rotate(0,500,188)"/><rect x="488" y="224" width="24" height="24" transform="rotate(0,500,236)"/><rect x="488" y="248" width="24" height="24" transform="rotate(0,500,260)"/><rect x="488" y="272" width="24" height="24" transform="rotate(0,500,284)"/><rect x="488" y="296" width="24" height="24" transform="rotate(0,500,308)"/><rect x="488" y="440" width="24" height="24" transform="rotate(0,500,452)"/><rect x="488" y="536" width="24" height="24" transform="rotate(0,500,548)"/><rect x="488" y="560" width="24" height="24" transform="rotate(0,500,572)"/><rect x="488" y="608" width="24" height="24" transform="rotate(0,500,620)"/><rect x="488" y="632" width="24" height="24" transform="rotate(0,500,644)"/><rect x="488" y="680" width="24" height="24" transform="rotate(0,500,692)"/><rect x="488" y="704" width="24" height="24" transform="rotate(0,500,716)"/><rect x="488" y="752" width="24" height="24" transform="rotate(0,500,764)"/><rect x="488" y="800" width="24" height="24" transform="rotate(0,500,812)"/><rect x="488" y="824" width="24" height="24" transform="rotate(0,500,836)"/><rect x="512" y="152" width="24" height="24" transform="rotate(0,524,164)"/><rect x="512" y="176" width="24" height="24" transform="rotate(0,524,188)"/><rect x="512" y="200" width="24" height="24" transform="rotate(0,524,212)"/><rect x="512" y="224" width="24" height="24" transform="rotate(0,524,236)"/><rect x="512" y="248" width="24" height="24" transform="rotate(0,524,260)"/><rect x="512" y="272" width="24" height="24" transform="rotate(0,524,284)"/><rect x="512" y="320" width="24" height="24" transform="rotate(0,524,332)"/><rect x="512" y="344" width="24" height="24" transform="rotate(0,524,356)"/><rect x="512" y="368" width="24" height="24" transform="rotate(0,524,380)"/><rect x="512" y="392" width="24" height="24" transform="rotate(0,524,404)"/><rect x="512" y="464" width="24" height="24" transform="rotate(0,524,476)"/><rect x="512" y="512" width="24" height="24" transform="rotate(0,524,524)"/><rect x="512" y="560" width="24" height="24" transform="rotate(0,524,572)"/><rect x="512" y="584" width="24" height="24" transform="rotate(0,524,596)"/><rect x="512" y="632" width="24" height="24" transform="rotate(0,524,644)"/><rect x="512" y="728" width="24" height="24" transform="rotate(0,524,740)"/><rect x="512" y="752" width="24" height="24" transform="rotate(0,524,764)"/><rect x="512" y="776" width="24" height="24" transform="rotate(0,524,788)"/><rect x="536" y="200" width="24" height="24" transform="rotate(0,548,212)"/><rect x="536" y="224" width="24" height="24" transform="rotate(0,548,236)"/><rect x="536" y="248" width="24" height="24" transform="rotate(0,548,260)"/><rect x="536" y="272" width="24" height="24" transform="rotate(0,548,284)"/><rect x="536" y="296" width="24" height="24" transform="rotate(0,548,308)"/><rect x="536" y="344" width="24" height="24" transform="rotate(0,548,356)"/><rect x="536" y="392" width="24" height="24" transform="rotate(0,548,404)"/><rect x="536" y="488" width="24" height="24" transform="rotate(0,548,500)"/><rect x="536" y="512" width="24" height="24" transform="rotate(0,548,524)"/><rect x="536" y="536" width="24" height="24" transform="rotate(0,548,548)"/><rect x="536" y="560" width="24" height="24" transform="rotate(0,548,572)"/><rect x="536" y="632" width="24" height="24" transform="rotate(0,548,644)"/><rect x="536" y="752" width="24" height="24" transform="rotate(0,548,764)"/><rect x="560" y="152" width="24" height="24" transform="rotate(0,572,164)"/><rect x="560" y="176" width="24" height="24" transform="rotate(0,572,188)"/><rect x="560" y="248" width="24" height="24" transform="rotate(0,572,260)"/><rect x="560" y="344" width="24" height="24" transform="rotate(0,572,356)"/><rect x="560" y="392" width="24" height="24" transform="rotate(0,572,404)"/><rect x="560" y="416" width="24" height="24" transform="rotate(0,572,428)"/><rect x="560" y="440" width="24" height="24" transform="rotate(0,572,452)"/><rect x="560" y="464" width="24" height="24" transform="rotate(0,572,476)"/><rect x="560" y="536" width="24" height="24" transform="rotate(0,572,548)"/><rect x="560" y="584" width="24" height="24" transform="rotate(0,572,596)"/><rect x="560" y="632" width="24" height="24" transform="rotate(0,572,644)"/><rect x="560" y="656" width="24" height="24" transform="rotate(0,572,668)"/><rect x="560" y="728" width="24" height="24" transform="rotate(0,572,740)"/><rect x="560" y="752" width="24" height="24" transform="rotate(0,572,764)"/><rect x="560" y="776" width="24" height="24" transform="rotate(0,572,788)"/><rect x="584" y="152" width="24" height="24" transform="rotate(0,596,164)"/><rect x="584" y="176" width="24" height="24" transform="rotate(0,596,188)"/><rect x="584" y="200" width="24" height="24" transform="rotate(0,596,212)"/><rect x="584" y="248" width="24" height="24" transform="rotate(0,596,260)"/><rect x="584" y="272" width="24" height="24" transform="rotate(0,596,284)"/><rect x="584" y="296" width="24" height="24" transform="rotate(0,596,308)"/><rect x="584" y="320" width="24" height="24" transform="rotate(0,596,332)"/><rect x="584" y="368" width="24" height="24" transform="rotate(0,596,380)"/><rect x="584" y="440" width="24" height="24" transform="rotate(0,596,452)"/><rect x="584" y="512" width="24" height="24" transform="rotate(0,596,524)"/><rect x="584" y="608" width="24" height="24" transform="rotate(0,596,620)"/><rect x="584" y="704" width="24" height="24" transform="rotate(0,596,716)"/><rect x="584" y="776" width="24" height="24" transform="rotate(0,596,788)"/><rect x="584" y="824" width="24" height="24" transform="rotate(0,596,836)"/><rect x="608" y="152" width="24" height="24" transform="rotate(0,620,164)"/><rect x="608" y="176" width="24" height="24" transform="rotate(0,620,188)"/><rect x="608" y="272" width="24" height="24" transform="rotate(0,620,284)"/><rect x="608" y="344" width="24" height="24" transform="rotate(0,620,356)"/><rect x="608" y="368" width="24" height="24" transform="rotate(0,620,380)"/><rect x="608" y="416" width="24" height="24" transform="rotate(0,620,428)"/><rect x="608" y="440" width="24" height="24" transform="rotate(0,620,452)"/><rect x="608" y="584" width="24" height="24" transform="rotate(0,620,596)"/><rect x="608" y="608" width="24" height="24" transform="rotate(0,620,620)"/><rect x="608" y="656" width="24" height="24" transform="rotate(0,620,668)"/><rect x="608" y="680" width="24" height="24" transform="rotate(0,620,692)"/><rect x="608" y="776" width="24" height="24" transform="rotate(0,620,788)"/><rect x="608" y="824" width="24" height="24" transform="rotate(0,620,836)"/><rect x="632" y="152" width="24" height="24" transform="rotate(0,644,164)"/><rect x="632" y="176" width="24" height="24" transform="rotate(0,644,188)"/><rect x="632" y="200" width="24" height="24" transform="rotate(0,644,212)"/><rect x="632" y="224" width="24" height="24" transform="rotate(0,644,236)"/><rect x="632" y="296" width="24" height="24" transform="rotate(0,644,308)"/><rect x="632" y="368" width="24" height="24" transform="rotate(0,644,380)"/><rect x="632" y="392" width="24" height="24" transform="rotate(0,644,404)"/><rect x="632" y="440" width="24" height="24" transform="rotate(0,644,452)"/><rect x="632" y="464" width="24" height="24" transform="rotate(0,644,476)"/><rect x="632" y="488" width="24" height="24" transform="rotate(0,644,500)"/><rect x="632" y="512" width="24" height="24" transform="rotate(0,644,524)"/><rect x="632" y="536" width="24" height="24" transform="rotate(0,644,548)"/><rect x="632" y="560" width="24" height="24" transform="rotate(0,644,572)"/><rect x="632" y="608" width="24" height="24" transform="rotate(0,644,620)"/><rect x="632" y="632" width="24" height="24" transform="rotate(0,644,644)"/><rect x="632" y="656" width="24" height="24" transform="rotate(0,644,668)"/><rect x="632" y="680" width="24" height="24" transform="rotate(0,644,692)"/><rect x="632" y="704" width="24" height="24" transform="rotate(0,644,716)"/><rect x="632" y="728" width="24" height="24" transform="rotate(0,644,740)"/><rect x="632" y="776" width="24" height="24" transform="rotate(0,644,788)"/><rect x="632" y="800" width="24" height="24" transform="rotate(0,644,812)"/><rect x="656" y="344" width="24" height="24" transform="rotate(0,668,356)"/><rect x="656" y="392" width="24" height="24" transform="rotate(0,668,404)"/><rect x="656" y="416" width="24" height="24" transform="rotate(0,668,428)"/><rect x="656" y="512" width="24" height="24" transform="rotate(0,668,524)"/><rect x="656" y="536" width="24" height="24" transform="rotate(0,668,548)"/><rect x="656" y="584" width="24" height="24" transform="rotate(0,668,596)"/><rect x="656" y="608" width="24" height="24" transform="rotate(0,668,620)"/><rect x="656" y="632" width="24" height="24" transform="rotate(0,668,644)"/><rect x="656" y="728" width="24" height="24" transform="rotate(0,668,740)"/><rect x="656" y="752" width="24" height="24" transform="rotate(0,668,764)"/><rect x="656" y="776" width="24" height="24" transform="rotate(0,668,788)"/><rect x="656" y="824" width="24" height="24" transform="rotate(0,668,836)"/><rect x="680" y="416" width="24" height="24" transform="rotate(0,692,428)"/><rect x="680" y="512" width="24" height="24" transform="rotate(0,692,524)"/><rect x="680" y="536" width="24" height="24" transform="rotate(0,692,548)"/><rect x="680" y="560" width="24" height="24" transform="rotate(0,692,572)"/><rect x="680" y="584" width="24" height="24" transform="rotate(0,692,596)"/><rect x="680" y="608" width="24" height="24" transform="rotate(0,692,620)"/><rect x="680" y="632" width="24" height="24" transform="rotate(0,692,644)"/><rect x="680" y="680" width="24" height="24" transform="rotate(0,692,692)"/><rect x="680" y="728" width="24" height="24" transform="rotate(0,692,740)"/><rect x="680" y="776" width="24" height="24" transform="rotate(0,692,788)"/><rect x="704" y="344" width="24" height="24" transform="rotate(0,716,356)"/><rect x="704" y="368" width="24" height="24" transform="rotate(0,716,380)"/><rect x="704" y="440" width="24" height="24" transform="rotate(0,716,452)"/><rect x="704" y="464" width="24" height="24" transform="rotate(0,716,476)"/><rect x="704" y="512" width="24" height="24" transform="rotate(0,716,524)"/><rect x="704" y="560" width="24" height="24" transform="rotate(0,716,572)"/><rect x="704" y="608" width="24" height="24" transform="rotate(0,716,620)"/><rect x="704" y="632" width="24" height="24" transform="rotate(0,716,644)"/><rect x="704" y="728" width="24" height="24" transform="rotate(0,716,740)"/><rect x="704" y="752" width="24" height="24" transform="rotate(0,716,764)"/><rect x="704" y="800" width="24" height="24" transform="rotate(0,716,812)"/><rect x="728" y="344" width="24" height="24" transform="rotate(0,740,356)"/><rect x="728" y="368" width="24" height="24" transform="rotate(0,740,380)"/><rect x="728" y="392" width="24" height="24" transform="rotate(0,740,404)"/><rect x="728" y="440" width="24" height="24" transform="rotate(0,740,452)"/><rect x="728" y="536" width="24" height="24" transform="rotate(0,740,548)"/><rect x="728" y="560" width="24" height="24" transform="rotate(0,740,572)"/><rect x="728" y="584" width="24" height="24" transform="rotate(0,740,596)"/><rect x="728" y="608" width="24" height="24" transform="rotate(0,740,620)"/><rect x="728" y="632" width="24" height="24" transform="rotate(0,740,644)"/><rect x="728" y="656" width="24" height="24" transform="rotate(0,740,668)"/><rect x="728" y="680" width="24" height="24" transform="rotate(0,740,692)"/><rect x="728" y="704" width="24" height="24" transform="rotate(0,740,716)"/><rect x="728" y="728" width="24" height="24" transform="rotate(0,740,740)"/><rect x="752" y="344" width="24" height="24" transform="rotate(0,764,356)"/><rect x="752" y="392" width="24" height="24" transform="rotate(0,764,404)"/><rect x="752" y="440" width="24" height="24" transform="rotate(0,764,452)"/><rect x="752" y="488" width="24" height="24" transform="rotate(0,764,500)"/><rect x="752" y="536" width="24" height="24" transform="rotate(0,764,548)"/><rect x="752" y="560" width="24" height="24" transform="rotate(0,764,572)"/><rect x="752" y="704" width="24" height="24" transform="rotate(0,764,716)"/><rect x="752" y="776" width="24" height="24" transform="rotate(0,764,788)"/><rect x="752" y="800" width="24" height="24" transform="rotate(0,764,812)"/><rect x="776" y="440" width="24" height="24" transform="rotate(0,788,452)"/><rect x="776" y="488" width="24" height="24" transform="rotate(0,788,500)"/><rect x="776" y="536" width="24" height="24" transform="rotate(0,788,548)"/><rect x="776" y="584" width="24" height="24" transform="rotate(0,788,596)"/><rect x="776" y="632" width="24" height="24" transform="rotate(0,788,644)"/><rect x="776" y="656" width="24" height="24" transform="rotate(0,788,668)"/><rect x="776" y="704" width="24" height="24" transform="rotate(0,788,716)"/><rect x="776" y="728" width="24" height="24" transform="rotate(0,788,740)"/><rect x="776" y="776" width="24" height="24" transform="rotate(0,788,788)"/><rect x="776" y="800" width="24" height="24" transform="rotate(0,788,812)"/><rect x="776" y="824" width="24" height="24" transform="rotate(0,788,836)"/><rect x="800" y="344" width="24" height="24" transform="rotate(0,812,356)"/><rect x="800" y="416" width="24" height="24" transform="rotate(0,812,428)"/><rect x="800" y="440" width="24" height="24" transform="rotate(0,812,452)"/><rect x="800" y="512" width="24" height="24" transform="rotate(0,812,524)"/><rect x="800" y="632" width="24" height="24" transform="rotate(0,812,644)"/><rect x="800" y="680" width="24" height="24" transform="rotate(0,812,692)"/><rect x="800" y="728" width="24" height="24" transform="rotate(0,812,740)"/><rect x="800" y="752" width="24" height="24" transform="rotate(0,812,764)"/><rect x="800" y="776" width="24" height="24" transform="rotate(0,812,788)"/><rect x="800" y="824" width="24" height="24" transform="rotate(0,812,836)"/><rect x="824" y="416" width="24" height="24" transform="rotate(0,836,428)"/><rect x="824" y="464" width="24" height="24" transform="rotate(0,836,476)"/><rect x="824" y="488" width="24" height="24" transform="rotate(0,836,500)"/><rect x="824" y="608" width="24" height="24" transform="rotate(0,836,620)"/><rect x="824" y="632" width="24" height="24" transform="rotate(0,836,644)"/><rect x="824" y="656" width="24" height="24" transform="rotate(0,836,668)"/><rect x="824" y="680" width="24" height="24" transform="rotate(0,836,692)"/><rect x="824" y="704" width="24" height="24" transform="rotate(0,836,716)"/><rect x="824" y="728" width="24" height="24" transform="rotate(0,836,740)"/></clipPath><linearGradient id="dot-color" gradientUnits="userSpaceOnUse" x1="152" y1="500" x2="848" y2="500"><stop offset="0%" stop-color="#000000"/><stop offset="100%" stop-color="#000000"/></linearGradient><clipPath id="clip-path-corners-square-color-0-0"><path clip-rule="evenodd" d="M 152 152v 168h 168v -168zM 176 176h 120v 120h -120z" transform="rotate(0,236,236)"/></clipPath><clipPath id="clip-path-corners-dot-color-0-0"><path d="m 200 200 m 69.888 66.24 c 0.144 -0.096 0.192 -0.288 0.192 -0.432 l -0.096 -1.536 c 0 -0.288 -0.24 -0.528 -0.528 -0.528 c 0 0 -0.096 0 -0.096 0 c 0.048 -0.288 0.096 -0.576 0.192 -1.056 c -0.144 -0.288 -0.192 -0.576 -0.24 -0.624 c 0.048 0 0.144 0.048 0.192 0.048 c 0.192 0 0.384 -0.096 0.48 -0.24 c 0.144 -0.24 0.096 -0.528 -0.096 -0.672 c -0.048 -0.096 -0.096 -0.528 -0.096 -0.816 c 0 -0.24 -0.048 -0.48 -0.048 -0.72 c 0 0 0.048 0 0.048 0 c 0.096 -0.096 0 -0.432 0 -0.576 c 0 -0.048 0 -0.048 0 -0.096 c 0.144 -0.096 0.192 -0.24 0.24 -0.432 c 0 -0.288 0 -0.624 -0.192 -0.864 c 0 0 0 0 0 0 c 0.048 -0.624 0 -1.248 -0.048 -1.872 c 0 -0.192 -0.048 -0.432 -0.048 -0.624 c 0.144 -0.048 0.288 -0.096 0.384 -0.192 c 0.096 -0.096 0.24 -0.288 0.192 -0.48 c -0.048 -0.768 -0.144 -1.536 -0.24 -2.256 c -0.144 -1.104 -0.288 -2.16 -0.24 -3.168 c 0 -0.192 -0.096 -0.288 -0.24 -0.384 l 0.048 -0.096 c 0.048 -0.192 0.144 -0.432 0.192 -0.72 c 0.144 -0.048 0.24 -0.192 0.288 -0.336 c 0 -0.048 0.048 -0.144 0 -0.24 c 0.048 -0.912 -0.048 -1.824 -0.24 -2.976 l -0.096 -0.72 c 0.048 -0.048 0.048 -0.144 0.096 -0.192 c 0.096 -0.48 0.144 -1.104 0.144 -1.68 c 0 -0.336 0 -0.72 -0.096 -1.536 c 0 -0.048 -0.048 -0.144 -0.096 -0.192 c 0.384 -1.2 0.192 -2.352 0.048 -3.36 c -0.096 -0.72 -0.192 -1.44 -0.096 -2.112 c 0 0 0 0 0.048 0 c 0.048 0 0.144 0 0.192 -0.048 c 0.192 -0.24 0.192 -0.336 0 -2.16 c 0 -0.192 -0.048 -0.384 -0.24 -0.528 c 0 0 0.048 -0.144 0.096 -0.192 c 0.096 -0.192 0 -0.432 -0.144 -0.624 c 0 -0.096 0.048 -0.24 0 -0.288 c -0.096 -0.288 -0.336 -0.432 -0.384 -0.624 c 0.048 -0.144 0.096 -0.336 0.096 -0.48 c 0.048 -0.048 0.096 -0.048 0.144 -0.096 c 0.144 -0.096 0.192 -0.288 0.192 -0.432 c 0 -0.288 -0.096 -0.528 -0.144 -0.768 c 0.336 -0.576 0.384 -0.864 0.432 -1.488 c 0 0 0.192 -1.152 0.192 -1.152 c 0.048 -0.288 -0.192 -0.384 -0.48 -0.48 c 0 0 -0.048 0 -0.048 0 c -0.096 -0.24 -0.096 -0.48 -0.096 -0.864 c 0 -0.192 0 -0.432 -0.048 -0.672 c 0.288 -0.144 0.576 -0.624 0.624 -0.816 l -0.048 -0.048 c 0 0 0 0 0 0 c 0.24 -0.192 0.288 -0.672 0.144 -0.912 c 0.048 -0.288 0.096 -0.672 -0.096 -1.152 c 0 0 0.048 -0.048 0.048 -0.048 c 0.144 -0.144 0.24 -0.336 0.192 -0.528 c 0 -0.192 -0.192 -0.48 -0.384 -0.672 c 0 -1.776 0.048 -4.08 -0.624 -5.808 c 0.048 -0.048 0.096 -0.144 0.096 -0.192 c 0.048 -0.528 0.096 -1.104 0 -1.632 c 0.096 -0.048 0.144 -0.096 0.192 -0.144 c 0.048 -0.048 0 -0.192 0 -0.384 c 0.24 -0.096 0.384 -0.384 0.336 -0.672 l -0.24 -0.864 c 0.144 -0.144 0.24 -0.48 0.192 -0.672 c -0.096 -0.768 -0.192 -1.344 -0.384 -1.776 c 0.096 -0.048 0.192 -0.048 0.24 -0.096 c 0.144 -0.096 0.144 -0.336 0.144 -0.48 c 0 -0.144 -0.096 -0.432 -0.192 -0.528 c -0.096 -0.144 -0.384 -0.48 -0.528 -0.48 c 0 0 0 0 0 0 c 0.192 -0.048 0.336 -0.096 0.432 -0.288 c 0.048 -0.192 0.048 -0.288 -0.048 -0.432 c 0 -0.192 0.048 -0.528 -0.192 -0.912 c 0.048 -0.048 0.144 -0.096 0.192 -0.192 c 0.144 -0.192 0.096 -0.48 -0.048 -0.672 c -0.336 -0.384 -0.864 -0.624 -1.344 -0.672 c -0.288 -0.336 -0.816 -0.576 -1.44 -0.576 c -0.048 0 -0.144 0 -0.192 0 c -0.144 -0.048 -0.576 -0.192 -0.672 -0.192 c -0.24 0 -0.48 0.048 -0.672 0.192 c -0.048 0 -0.096 -0.048 -0.096 -0.048 c -0.144 -0.048 -0.384 -0.144 -0.576 -0.144 c -0.048 0 -0.096 0 -0.096 0 l -0.336 0.192 c -0.096 -0.096 -0.24 -0.144 -0.336 -0.192 c -0.096 -0.048 -0.288 -0.048 -0.432 -0.048 c -0.096 0 -0.144 0 -0.192 0.048 c -0.096 0.048 -0.192 0.144 -0.288 0.288 c -0.096 -0.144 -0.288 -0.24 -0.432 -0.24 c -0.048 0 -0.096 0 -0.144 0 c 0 0 -0.192 0.096 -0.24 0.096 c -0.048 0 -0.144 0 -0.192 0 c -0.096 0 -0.144 0 -0.192 0.048 c -0.336 0.048 -0.672 0.048 -0.96 0.192 c -0.048 0 -0.144 0 -0.24 0 c -0.24 0 -0.528 0.048 -0.864 0.192 c 0 -0.24 -0.096 -0.432 -0.288 -0.528 c -0.096 -0.048 -0.192 -0.048 -0.288 -0.048 c -0.144 0 -0.24 0.048 -0.336 0.096 c -0.048 0.048 -0.288 0.144 -0.528 0.24 c -0.24 -0.24 -0.624 -0.24 -1.056 -0.24 c -0.048 0 -0.048 0 -0.096 0 c -0.144 0 -0.336 0 -0.384 0.144 c 0 -0.192 -0.096 -0.384 -0.288 -0.48 c -0.096 -0.048 -0.192 -0.096 -0.288 -0.096 c -0.144 0 -0.288 0.048 -0.384 0.144 c -0.24 0.24 -0.912 0.24 -1.536 0.288 c -0.384 0 -0.768 0.048 -1.152 0.096 c -0.048 0 -0.048 0 -0.096 0 c -0.288 -0.048 -0.48 -0.096 -1.104 -0.336 c -0.048 0 -0.144 -0.048 -0.192 -0.048 c -0.096 0 -0.192 0 -0.24 0.048 c -0.144 0.096 -0.24 0.192 -0.24 0.336 c -0.048 0.048 -0.192 0.144 -0.384 0.192 c 0.048 -0.192 0.048 -0.336 0 -0.432 c -0.096 -0.192 -0.432 -0.384 -0.672 -0.384 c -0.048 0 -0.096 0 -0.144 0 c -0.24 0.048 -0.576 0.24 -0.528 0.528 c -0.144 0.048 -0.288 0.096 -0.432 0.144 c -0.144 -0.096 -0.24 -0.192 -0.24 -0.192 c -0.096 -0.144 -0.288 -0.288 -0.48 -0.288 c -0.048 0 -0.048 0 -0.096 0 c -0.24 0.048 -0.384 0.192 -0.432 0.384 c -0.048 0 -0.24 0.048 -0.432 0.096 c -0.096 -0.048 -0.24 -0.096 -0.336 -0.144 c 0 -0.048 0 -0.096 0 -0.144 c -0.048 -0.288 -0.288 -0.48 -0.576 -0.48 c -0.144 0 -0.864 0.192 -0.96 0.336 c -0.048 0.048 -0.096 0.144 -0.144 0.192 c 0 -0.048 -0.048 -0.048 -0.096 -0.096 c -0.096 -0.096 -0.336 -0.288 -0.48 -0.288 c 0 0 0 0 -0.048 0 c -0.384 0.048 -0.72 0.24 -1.056 0.336 c -0.144 0.048 -0.24 0.096 -0.336 0.144 c -0.096 -0.096 -0.24 -0.144 -0.384 -0.144 c -0.096 0 -0.192 0 -0.24 0.048 c -0.24 0.144 -0.72 0.144 -1.2 0.144 c -0.528 0 -1.152 0.048 -1.68 0.192 c -0.048 0 -0.144 -0.048 -0.192 -0.048 c -0.096 0 -0.192 0 -0.24 0.048 c 0 0 -0.24 0.048 -0.288 0.048 c -0.048 -0.24 -0.192 -0.48 -0.288 -0.576 c -0.096 -0.096 -0.528 -0.144 -0.816 -0.144 c -0.096 0 -1.392 -0.048 -1.392 -0.048 c -0.432 0 -1.536 0 -2.064 0.816 c -0.384 0 -0.528 -0.144 -0.72 -0.336 c -0.24 -0.192 -0.528 -0.432 -1.056 -0.432 c -0.24 0 -0.48 0.048 -0.96 0.288 c 0 0 -0.192 0.144 -0.384 0.288 c 0 0 0 -0.048 -0.048 -0.048 c -0.096 -0.192 -0.336 -0.288 -0.576 -0.288 c -0.432 0 -0.72 0.096 -0.672 0.192 c -0.288 -0.048 -0.48 -0.048 -0.624 -0.144 c -0.096 -0.048 -0.144 -0.048 -0.24 -0.048 c -0.144 0 -0.24 0.048 -0.336 0.144 c -0.144 -0.048 -0.24 -0.096 -0.384 -0.144 c -0.288 -0.096 -0.624 -0.24 -1.392 -0.24 c 0 0 -0.048 0 -0.048 0 c -0.048 0.048 -0.192 0.096 -0.288 0.144 c 0 -0.048 -0.048 -0.048 -0.048 -0.048 c -0.288 -0.144 -1.008 -0.336 -1.152 -0.336 c -0.288 0 -0.336 0.24 -0.384 0.528 c 0 0 0 0 0 0.048 c -0.192 0.048 -0.336 0.096 -0.48 0.192 c -0.048 0 -0.144 0 -0.192 0 c -0.096 0 -0.192 0 -0.288 0.048 c -0.048 -0.24 -0.288 -0.288 -0.48 -0.336 c 0 0 -0.048 0 -0.048 0 c -0.192 0 -0.48 0.192 -0.576 0.336 c -0.144 -0.048 -0.24 -0.096 -0.432 -0.096 c -0.096 0 -0.24 0 -0.384 0.048 c 0 -0.288 -0.144 -0.528 -0.432 -0.576 c -0.048 0 -0.096 0 -0.144 0 c -0.192 0 -0.384 0.096 -0.48 0.288 c 0 0.048 -0.048 0.096 -0.048 0.144 c -0.096 0.048 -0.24 0.096 -0.336 0.144 c 0 -0.144 -0.096 -0.288 -0.24 -0.384 c -0.096 -0.048 -0.192 -0.096 -0.288 -0.096 c -0.048 0 -0.096 0 -0.144 0 c 0 0 -0.864 0.24 -0.864 0.24 c -0.768 0 -1.68 -0.048 -2.208 -0.24 c -0.144 0 -0.384 -0.048 -0.576 -0.048 c -0.144 0 -0.24 0 -0.288 0.048 c -0.144 -0.144 -0.384 -0.288 -0.576 -0.288 c -0.048 0 -0.096 0 -0.144 0.048 c -0.24 0.144 -0.432 0.24 -0.336 0.48 l 0 0 c -0.048 0 -0.144 -0.048 -0.192 -0.048 c -0.048 0 -0.144 0 -0.192 0 c -0.576 0 -1.248 0.048 -1.008 0.24 c -0.336 0 -0.576 -0.096 -0.576 -0.144 c -0.144 -0.096 -0.384 -0.24 -0.576 -0.24 c -0.048 0 -0.096 0 -0.144 0.048 c -0.24 0.096 -0.48 0.192 -0.48 0.432 c -0.288 0 -0.624 0 -0.864 0.144 c -0.288 -0.144 -0.624 -0.192 -1.44 -0.336 c -0.048 0 -0.336 -0.096 -0.432 -0.096 c -0.144 0 -0.288 0.048 -0.336 0.192 c -0.144 -0.192 -0.336 -0.288 -0.528 -0.288 c -0.048 0 -0.048 0 -0.048 0 c -0.144 0 -0.384 0.048 -0.528 0.384 l -0.816 -0.336 c -0.144 0 -0.288 0.096 -0.384 0.144 c -0.192 -0.048 -0.384 -0.144 -0.624 -0.144 c -0.096 0 -0.528 0.144 -0.672 0.192 c -0.048 0 -0.144 0 -0.192 0 c -0.672 0 -1.2 0.24 -1.44 0.576 c -0.528 0.048 -1.056 0.336 -1.392 0.672 c -0.192 0.192 0 0.48 0.144 0.672 c 0 0.048 0.048 0.048 0.096 0.096 c -0.384 0.432 -0.336 0.816 -0.24 0.864 c -0.144 0.144 -0.24 0.24 -0.144 0.432 c 0.048 0.192 0.144 0.192 0.288 0.24 c 0 0.144 -0.336 0.576 -0.624 0.96 c -0.096 0.144 -0.144 0.288 -0.096 0.432 c 0.048 0.144 0.096 0.288 0.24 0.336 c 0.048 0.048 0.144 0.048 0.24 0.096 c -0.24 0.48 -0.336 1.152 -0.432 2.112 c -0.048 0.192 0.096 0.24 0.24 0.24 l -0.24 0.96 c -0.048 0.24 0.144 0.336 0.336 0.432 c -0.048 0.24 -0.096 0.576 0 0.672 c 0.048 0.048 0.096 0.096 0.192 0.144 c -0.096 0.528 -0.096 1.104 0.096 1.776 c 0.048 0.096 0.048 0.192 0.096 0.24 c -0.672 1.824 -0.672 4.176 -0.624 5.952 l 0 0.672 h 0.096 l -0.24 0.24 c 0 0.048 0 0.048 0 0.096 c -0.192 0.528 -0.144 0.96 -0.096 1.536 c -0.096 0.192 -0.048 0.528 0.192 0.672 c 0.096 0.048 0.192 0.096 0.336 0.096 c 0.096 0 0.192 -0.048 0.288 -0.096 c 0 0 0 0 0 0 l -0.192 0.624 c 0.048 0.096 0.096 0.144 0.192 0.24 c 0 0.192 0 0.384 0 0.528 c 0 0.288 0 0.528 -0.048 0.672 c 0 0 -0.096 0 -0.144 0 c -0.336 0.144 -0.48 0.384 -0.432 0.672 l 0.192 1.2 l 0.048 0 c 0 0.048 0 0.144 0 0.192 c 0.048 0.336 0.048 0.624 0.384 1.2 c -0.096 0.24 -0.144 0.48 -0.144 0.768 c 0 0.144 0.048 0.336 0.192 0.432 c 0.048 0.048 0.048 0.048 0.096 0.096 c 0 0.096 -0.048 0.192 -0.096 0.288 c -0.048 0.144 0.048 0.288 0.192 0.432 c -0.144 0.096 -0.336 0.288 -0.384 0.432 c -0.048 0.144 -0.048 0.24 0 0.384 c -0.144 0.192 -0.144 0.48 -0.048 0.672 c 0 0.048 0.048 0.096 0.048 0.144 c -0.048 0 -0.048 0.048 -0.048 0.048 c -0.144 0.144 -0.288 0.432 -0.24 0.624 c -0.144 1.344 -0.144 1.632 0.24 1.92 c 0.096 0.672 0 1.392 -0.096 2.112 c -0.144 1.056 -0.336 2.256 0.096 3.504 c -0.144 0.24 -0.288 0.48 -0.336 0.576 c 0.048 0.288 0.048 0.624 0.048 1.008 c 0 0.576 0.048 1.2 0.144 1.68 c 0 0.048 0.048 0.096 0.096 0.144 l -0.096 0.768 c -0.144 1.152 -0.288 2.016 -0.24 2.928 c 0 0.048 0 0.144 0 0.24 c 0.048 0.144 0.144 0.288 0.288 0.336 c 0.048 0.192 0.144 0.432 0.24 0.624 c -0.192 0.096 -0.288 0.288 -0.288 0.528 c 0.048 1.008 -0.096 2.064 -0.24 3.168 c -0.096 0.768 -0.192 1.536 -0.096 2.688 c 0.096 0.096 0.288 0.192 0.432 0.24 c 0 0.192 -0.048 0.384 -0.048 0.624 c -0.048 0.624 -0.096 1.248 -0.048 1.872 c 0 0 0 0 0 0 c -0.096 0.096 -0.24 0.72 -0.192 0.864 c 0 0.144 0.048 0.24 0.144 0.336 c -0.048 0.096 0.048 0.288 0.144 0.432 c -0.096 0.336 -0.096 0.672 -0.144 1.008 c 0 0.288 -0.048 0.72 -0.096 0.816 c -0.192 0.192 -0.24 0.384 -0.096 0.624 c 0.096 0.144 0.24 0.192 0.384 0.192 c 0.096 0 0.192 0 0.288 -0.048 c 0.048 0.096 -0.048 0.48 -0.144 1.344 c 0.048 0.096 0.096 0.24 0.144 0.528 c 0 0 -0.096 0 -0.096 0 c -0.288 0 -0.48 0.24 -0.528 0.528 l -0.096 1.536 c 0 0.192 0.048 0.336 0.192 0.432 c 0 0.096 -0.096 0.72 -0.096 0.96 c -0.192 0.096 -0.288 0.288 -0.288 0.528 c 0.048 0.528 0.096 1.056 0.432 1.584 c 0.096 0.144 0.624 0.336 0.816 0.336 c 0 0 0.672 0.144 0.72 0.144 c 0.336 0 0.528 -0.192 0.624 -0.288 c 0 0 0 0 0 0 c 1.104 0 1.824 0.144 2.496 0.288 c 0.528 0.096 1.056 0.192 1.728 0.24 c 0 0 0.096 0 0.144 0 c 0.144 0 0.24 -0.048 0.336 -0.096 c 0.048 -0.048 0.096 -0.048 0.144 -0.096 c 0.432 0.048 0.768 0.192 1.152 0.384 c 0.048 0.048 0.144 0.048 0.192 0.048 c 0.144 0 0.24 -0.096 0.336 -0.192 c 0 0 0 0 0 0 c 0.24 0.144 0.528 0.24 1.152 0.336 c 0 0 0.048 0 0.048 0 c 0.096 0 0.192 -0.048 0.288 -0.096 c 0.048 0.048 0.096 0.048 0.144 0.048 c 0.096 0.048 0.192 0.048 0.288 0.048 c 0.144 0 0.288 -0.048 0.384 -0.192 c 0.144 -0.192 0.096 -0.384 -0.048 -0.528 c 0.192 -0.048 0.48 -0.096 0.672 -0.24 c 0.048 0 0.144 0.048 0.144 0.048 c 0 0.144 0.048 0.432 0.144 0.576 c 0.096 0.144 0.576 0.288 0.72 0.288 v -0.192 c 0.096 0 0.192 0.048 0.288 0.048 l 0.096 0.096 c 0.048 0 0.048 0 0.096 0 c 0.096 0 0.24 0 0.336 -0.048 c 0.528 0.048 1.104 0.048 1.632 0.048 h 0.912 c 0.672 0 1.392 0 2.064 0.096 c 0 0 0.048 0 0.048 0 c 0.24 0 0.384 -0.144 0.48 -0.384 c 0 0 0 0 0 0 c 0.432 0.048 1.056 0.144 1.68 0.24 l 0.096 -0.576 l 0.48 0.768 c 0.048 0.048 0.432 0.048 0.672 0.048 c 0.048 0 0.144 0 0.144 0 l 0.864 0.144 c 0 0 0.144 0 0.192 0 c 0.192 0.048 0.432 0.096 0.72 0.096 c 0.576 0 1.344 -0.144 1.2 -0.432 c 0.288 0.24 0.672 0.336 1.2 0.336 c 0.24 0 0.48 0 0.912 -0.096 c 0.144 0.096 0.336 0.144 0.528 0.144 c 0.096 0 0.192 0 0.288 -0.048 c 0.432 0 0.864 -0.048 1.104 -0.24 c 0.048 0 0.096 0 0.096 0 c 0 0 0.192 0 0.24 -0.048 l 1.248 -0.048 c 0.288 0 0.528 0.048 0.72 0.096 c 0.048 0 0.096 0 0.144 0 c 0.192 0 0.528 -0.048 0.624 -0.144 l 0.768 0.048 c 0.192 0 0.336 0 0.48 -0.048 c 0.288 0.144 0.672 0.24 1.152 0.24 c 0.432 0 0.864 -0.048 1.248 -0.144 c 0 0 0 0 0.048 0 c 0.096 0.192 0.336 0.336 0.576 0.336 c 0.816 0 1.248 -0.144 1.488 -0.288 c 0.24 0.048 0.48 0.096 0.768 0.096 c 0.384 0 0.768 -0.048 1.104 -0.144 c 0.24 -0.048 0.48 -0.096 0.672 -0.096 l 0.912 0.336 c 1.248 -0.192 2.448 -0.336 3.6 -0.432 c 0.048 0.144 0.096 0.24 0.192 0.336 c 0.096 0.096 0.24 0.096 0.336 0.096 c 0.048 0 0.768 -0.144 1.296 -0.192 c 0.864 -0.144 1.872 -0.336 2.688 -0.432 c 0 0 0 0 0 0.048 c 0.096 0.192 0.288 0.336 0.528 0.336 c 0 0 0.048 0 0.048 0 c 0.72 -0.096 1.392 -0.096 2.064 -0.096 h 0.912 c 0.576 0 1.152 0 1.776 -0.192 c 0.144 0.096 0.336 0.192 0.48 0.192 c 0 0 0.144 0 0.192 0 c 0.144 0 0.624 -0.144 0.72 -0.288 c 0.096 -0.144 0.192 -0.384 0.144 -0.576 l 0.192 -0.096 c 0.096 0.048 0.24 0.096 0.336 0.096 c 0.144 0 0.24 -0.048 0.384 -0.096 c -0.144 0.192 -0.192 0.48 -0.048 0.672 c 0.096 0.192 0.288 0.288 0.48 0.288 c 0.048 0 0.096 0 0.144 0 c 0.048 0 0.096 -0.048 0.144 -0.048 c 0.096 0.048 0.192 0.048 0.288 0.048 c 0 0 0.048 0 0.048 0 c 0.528 -0.048 0.816 -0.192 1.056 -0.288 c 0.096 0.144 0.288 0.192 0.432 0.192 c 0.096 0 0.144 0 0.24 -0.048 c 0.336 -0.144 0.672 -0.336 1.248 -0.336 c 0.096 0.096 0.24 0.192 0.432 0.192 c 0 0 0 0 0.048 0 c 0.672 -0.048 1.2 -0.144 1.728 -0.24 c 0.624 -0.144 1.248 -0.24 2.544 -0.288 c 0.096 0.096 0.24 0.288 0.624 0.288 c 0.048 0 1.104 -0.24 1.104 -0.24 c 0.192 0 0.384 -0.096 0.48 -0.24 c 0.336 -0.528 0.384 -1.056 0.432 -1.584 c 0 -0.144 -0.096 -0.24 -0.24 -0.336 c -0.144 -0.288 -0.192 -0.624 -0.288 -1.104 z"/></clipPath><clipPath id="clip-path-corners-square-color-1-0"><path clip-rule="evenodd" d="M 680 152v 168h 168v -168zM 704 176h 120v 120h -120z" transform="rotate(90,764,236)"/></clipPath><clipPath id="clip-path-corners-dot-color-1-0"><path d="m 728 200 m 69.888 66.24 c 0.144 -0.096 0.192 -0.288 0.192 -0.432 l -0.096 -1.536 c 0 -0.288 -0.24 -0.528 -0.528 -0.528 c 0 0 -0.096 0 -0.096 0 c 0.048 -0.288 0.096 -0.576 0.192 -1.056 c -0.144 -0.288 -0.192 -0.576 -0.24 -0.624 c 0.048 0 0.144 0.048 0.192 0.048 c 0.192 0 0.384 -0.096 0.48 -0.24 c 0.144 -0.24 0.096 -0.528 -0.096 -0.672 c -0.048 -0.096 -0.096 -0.528 -0.096 -0.816 c 0 -0.24 -0.048 -0.48 -0.048 -0.72 c 0 0 0.048 0 0.048 0 c 0.096 -0.096 0 -0.432 0 -0.576 c 0 -0.048 0 -0.048 0 -0.096 c 0.144 -0.096 0.192 -0.24 0.24 -0.432 c 0 -0.288 0 -0.624 -0.192 -0.864 c 0 0 0 0 0 0 c 0.048 -0.624 0 -1.248 -0.048 -1.872 c 0 -0.192 -0.048 -0.432 -0.048 -0.624 c 0.144 -0.048 0.288 -0.096 0.384 -0.192 c 0.096 -0.096 0.24 -0.288 0.192 -0.48 c -0.048 -0.768 -0.144 -1.536 -0.24 -2.256 c -0.144 -1.104 -0.288 -2.16 -0.24 -3.168 c 0 -0.192 -0.096 -0.288 -0.24 -0.384 l 0.048 -0.096 c 0.048 -0.192 0.144 -0.432 0.192 -0.72 c 0.144 -0.048 0.24 -0.192 0.288 -0.336 c 0 -0.048 0.048 -0.144 0 -0.24 c 0.048 -0.912 -0.048 -1.824 -0.24 -2.976 l -0.096 -0.72 c 0.048 -0.048 0.048 -0.144 0.096 -0.192 c 0.096 -0.48 0.144 -1.104 0.144 -1.68 c 0 -0.336 0 -0.72 -0.096 -1.536 c 0 -0.048 -0.048 -0.144 -0.096 -0.192 c 0.384 -1.2 0.192 -2.352 0.048 -3.36 c -0.096 -0.72 -0.192 -1.44 -0.096 -2.112 c 0 0 0 0 0.048 0 c 0.048 0 0.144 0 0.192 -0.048 c 0.192 -0.24 0.192 -0.336 0 -2.16 c 0 -0.192 -0.048 -0.384 -0.24 -0.528 c 0 0 0.048 -0.144 0.096 -0.192 c 0.096 -0.192 0 -0.432 -0.144 -0.624 c 0 -0.096 0.048 -0.24 0 -0.288 c -0.096 -0.288 -0.336 -0.432 -0.384 -0.624 c 0.048 -0.144 0.096 -0.336 0.096 -0.48 c 0.048 -0.048 0.096 -0.048 0.144 -0.096 c 0.144 -0.096 0.192 -0.288 0.192 -0.432 c 0 -0.288 -0.096 -0.528 -0.144 -0.768 c 0.336 -0.576 0.384 -0.864 0.432 -1.488 c 0 0 0.192 -1.152 0.192 -1.152 c 0.048 -0.288 -0.192 -0.384 -0.48 -0.48 c 0 0 -0.048 0 -0.048 0 c -0.096 -0.24 -0.096 -0.48 -0.096 -0.864 c 0 -0.192 0 -0.432 -0.048 -0.672 c 0.288 -0.144 0.576 -0.624 0.624 -0.816 l -0.048 -0.048 c 0 0 0 0 0 0 c 0.24 -0.192 0.288 -0.672 0.144 -0.912 c 0.048 -0.288 0.096 -0.672 -0.096 -1.152 c 0 0 0.048 -0.048 0.048 -0.048 c 0.144 -0.144 0.24 -0.336 0.192 -0.528 c 0 -0.192 -0.192 -0.48 -0.384 -0.672 c 0 -1.776 0.048 -4.08 -0.624 -5.808 c 0.048 -0.048 0.096 -0.144 0.096 -0.192 c 0.048 -0.528 0.096 -1.104 0 -1.632 c 0.096 -0.048 0.144 -0.096 0.192 -0.144 c 0.048 -0.048 0 -0.192 0 -0.384 c 0.24 -0.096 0.384 -0.384 0.336 -0.672 l -0.24 -0.864 c 0.144 -0.144 0.24 -0.48 0.192 -0.672 c -0.096 -0.768 -0.192 -1.344 -0.384 -1.776 c 0.096 -0.048 0.192 -0.048 0.24 -0.096 c 0.144 -0.096 0.144 -0.336 0.144 -0.48 c 0 -0.144 -0.096 -0.432 -0.192 -0.528 c -0.096 -0.144 -0.384 -0.48 -0.528 -0.48 c 0 0 0 0 0 0 c 0.192 -0.048 0.336 -0.096 0.432 -0.288 c 0.048 -0.192 0.048 -0.288 -0.048 -0.432 c 0 -0.192 0.048 -0.528 -0.192 -0.912 c 0.048 -0.048 0.144 -0.096 0.192 -0.192 c 0.144 -0.192 0.096 -0.48 -0.048 -0.672 c -0.336 -0.384 -0.864 -0.624 -1.344 -0.672 c -0.288 -0.336 -0.816 -0.576 -1.44 -0.576 c -0.048 0 -0.144 0 -0.192 0 c -0.144 -0.048 -0.576 -0.192 -0.672 -0.192 c -0.24 0 -0.48 0.048 -0.672 0.192 c -0.048 0 -0.096 -0.048 -0.096 -0.048 c -0.144 -0.048 -0.384 -0.144 -0.576 -0.144 c -0.048 0 -0.096 0 -0.096 0 l -0.336 0.192 c -0.096 -0.096 -0.24 -0.144 -0.336 -0.192 c -0.096 -0.048 -0.288 -0.048 -0.432 -0.048 c -0.096 0 -0.144 0 -0.192 0.048 c -0.096 0.048 -0.192 0.144 -0.288 0.288 c -0.096 -0.144 -0.288 -0.24 -0.432 -0.24 c -0.048 0 -0.096 0 -0.144 0 c 0 0 -0.192 0.096 -0.24 0.096 c -0.048 0 -0.144 0 -0.192 0 c -0.096 0 -0.144 0 -0.192 0.048 c -0.336 0.048 -0.672 0.048 -0.96 0.192 c -0.048 0 -0.144 0 -0.24 0 c -0.24 0 -0.528 0.048 -0.864 0.192 c 0 -0.24 -0.096 -0.432 -0.288 -0.528 c -0.096 -0.048 -0.192 -0.048 -0.288 -0.048 c -0.144 0 -0.24 0.048 -0.336 0.096 c -0.048 0.048 -0.288 0.144 -0.528 0.24 c -0.24 -0.24 -0.624 -0.24 -1.056 -0.24 c -0.048 0 -0.048 0 -0.096 0 c -0.144 0 -0.336 0 -0.384 0.144 c 0 -0.192 -0.096 -0.384 -0.288 -0.48 c -0.096 -0.048 -0.192 -0.096 -0.288 -0.096 c -0.144 0 -0.288 0.048 -0.384 0.144 c -0.24 0.24 -0.912 0.24 -1.536 0.288 c -0.384 0 -0.768 0.048 -1.152 0.096 c -0.048 0 -0.048 0 -0.096 0 c -0.288 -0.048 -0.48 -0.096 -1.104 -0.336 c -0.048 0 -0.144 -0.048 -0.192 -0.048 c -0.096 0 -0.192 0 -0.24 0.048 c -0.144 0.096 -0.24 0.192 -0.24 0.336 c -0.048 0.048 -0.192 0.144 -0.384 0.192 c 0.048 -0.192 0.048 -0.336 0 -0.432 c -0.096 -0.192 -0.432 -0.384 -0.672 -0.384 c -0.048 0 -0.096 0 -0.144 0 c -0.24 0.048 -0.576 0.24 -0.528 0.528 c -0.144 0.048 -0.288 0.096 -0.432 0.144 c -0.144 -0.096 -0.24 -0.192 -0.24 -0.192 c -0.096 -0.144 -0.288 -0.288 -0.48 -0.288 c -0.048 0 -0.048 0 -0.096 0 c -0.24 0.048 -0.384 0.192 -0.432 0.384 c -0.048 0 -0.24 0.048 -0.432 0.096 c -0.096 -0.048 -0.24 -0.096 -0.336 -0.144 c 0 -0.048 0 -0.096 0 -0.144 c -0.048 -0.288 -0.288 -0.48 -0.576 -0.48 c -0.144 0 -0.864 0.192 -0.96 0.336 c -0.048 0.048 -0.096 0.144 -0.144 0.192 c 0 -0.048 -0.048 -0.048 -0.096 -0.096 c -0.096 -0.096 -0.336 -0.288 -0.48 -0.288 c 0 0 0 0 -0.048 0 c -0.384 0.048 -0.72 0.24 -1.056 0.336 c -0.144 0.048 -0.24 0.096 -0.336 0.144 c -0.096 -0.096 -0.24 -0.144 -0.384 -0.144 c -0.096 0 -0.192 0 -0.24 0.048 c -0.24 0.144 -0.72 0.144 -1.2 0.144 c -0.528 0 -1.152 0.048 -1.68 0.192 c -0.048 0 -0.144 -0.048 -0.192 -0.048 c -0.096 0 -0.192 0 -0.24 0.048 c 0 0 -0.24 0.048 -0.288 0.048 c -0.048 -0.24 -0.192 -0.48 -0.288 -0.576 c -0.096 -0.096 -0.528 -0.144 -0.816 -0.144 c -0.096 0 -1.392 -0.048 -1.392 -0.048 c -0.432 0 -1.536 0 -2.064 0.816 c -0.384 0 -0.528 -0.144 -0.72 -0.336 c -0.24 -0.192 -0.528 -0.432 -1.056 -0.432 c -0.24 0 -0.48 0.048 -0.96 0.288 c 0 0 -0.192 0.144 -0.384 0.288 c 0 0 0 -0.048 -0.048 -0.048 c -0.096 -0.192 -0.336 -0.288 -0.576 -0.288 c -0.432 0 -0.72 0.096 -0.672 0.192 c -0.288 -0.048 -0.48 -0.048 -0.624 -0.144 c -0.096 -0.048 -0.144 -0.048 -0.24 -0.048 c -0.144 0 -0.24 0.048 -0.336 0.144 c -0.144 -0.048 -0.24 -0.096 -0.384 -0.144 c -0.288 -0.096 -0.624 -0.24 -1.392 -0.24 c 0 0 -0.048 0 -0.048 0 c -0.048 0.048 -0.192 0.096 -0.288 0.144 c 0 -0.048 -0.048 -0.048 -0.048 -0.048 c -0.288 -0.144 -1.008 -0.336 -1.152 -0.336 c -0.288 0 -0.336 0.24 -0.384 0.528 c 0 0 0 0 0 0.048 c -0.192 0.048 -0.336 0.096 -0.48 0.192 c -0.048 0 -0.144 0 -0.192 0 c -0.096 0 -0.192 0 -0.288 0.048 c -0.048 -0.24 -0.288 -0.288 -0.48 -0.336 c 0 0 -0.048 0 -0.048 0 c -0.192 0 -0.48 0.192 -0.576 0.336 c -0.144 -0.048 -0.24 -0.096 -0.432 -0.096 c -0.096 0 -0.24 0 -0.384 0.048 c 0 -0.288 -0.144 -0.528 -0.432 -0.576 c -0.048 0 -0.096 0 -0.144 0 c -0.192 0 -0.384 0.096 -0.48 0.288 c 0 0.048 -0.048 0.096 -0.048 0.144 c -0.096 0.048 -0.24 0.096 -0.336 0.144 c 0 -0.144 -0.096 -0.288 -0.24 -0.384 c -0.096 -0.048 -0.192 -0.096 -0.288 -0.096 c -0.048 0 -0.096 0 -0.144 0 c 0 0 -0.864 0.24 -0.864 0.24 c -0.768 0 -1.68 -0.048 -2.208 -0.24 c -0.144 0 -0.384 -0.048 -0.576 -0.048 c -0.144 0 -0.24 0 -0.288 0.048 c -0.144 -0.144 -0.384 -0.288 -0.576 -0.288 c -0.048 0 -0.096 0 -0.144 0.048 c -0.24 0.144 -0.432 0.24 -0.336 0.48 l 0 0 c -0.048 0 -0.144 -0.048 -0.192 -0.048 c -0.048 0 -0.144 0 -0.192 0 c -0.576 0 -1.248 0.048 -1.008 0.24 c -0.336 0 -0.576 -0.096 -0.576 -0.144 c -0.144 -0.096 -0.384 -0.24 -0.576 -0.24 c -0.048 0 -0.096 0 -0.144 0.048 c -0.24 0.096 -0.48 0.192 -0.48 0.432 c -0.288 0 -0.624 0 -0.864 0.144 c -0.288 -0.144 -0.624 -0.192 -1.44 -0.336 c -0.048 0 -0.336 -0.096 -0.432 -0.096 c -0.144 0 -0.288 0.048 -0.336 0.192 c -0.144 -0.192 -0.336 -0.288 -0.528 -0.288 c -0.048 0 -0.048 0 -0.048 0 c -0.144 0 -0.384 0.048 -0.528 0.384 l -0.816 -0.336 c -0.144 0 -0.288 0.096 -0.384 0.144 c -0.192 -0.048 -0.384 -0.144 -0.624 -0.144 c -0.096 0 -0.528 0.144 -0.672 0.192 c -0.048 0 -0.144 0 -0.192 0 c -0.672 0 -1.2 0.24 -1.44 0.576 c -0.528 0.048 -1.056 0.336 -1.392 0.672 c -0.192 0.192 0 0.48 0.144 0.672 c 0 0.048 0.048 0.048 0.096 0.096 c -0.384 0.432 -0.336 0.816 -0.24 0.864 c -0.144 0.144 -0.24 0.24 -0.144 0.432 c 0.048 0.192 0.144 0.192 0.288 0.24 c 0 0.144 -0.336 0.576 -0.624 0.96 c -0.096 0.144 -0.144 0.288 -0.096 0.432 c 0.048 0.144 0.096 0.288 0.24 0.336 c 0.048 0.048 0.144 0.048 0.24 0.096 c -0.24 0.48 -0.336 1.152 -0.432 2.112 c -0.048 0.192 0.096 0.24 0.24 0.24 l -0.24 0.96 c -0.048 0.24 0.144 0.336 0.336 0.432 c -0.048 0.24 -0.096 0.576 0 0.672 c 0.048 0.048 0.096 0.096 0.192 0.144 c -0.096 0.528 -0.096 1.104 0.096 1.776 c 0.048 0.096 0.048 0.192 0.096 0.24 c -0.672 1.824 -0.672 4.176 -0.624 5.952 l 0 0.672 h 0.096 l -0.24 0.24 c 0 0.048 0 0.048 0 0.096 c -0.192 0.528 -0.144 0.96 -0.096 1.536 c -0.096 0.192 -0.048 0.528 0.192 0.672 c 0.096 0.048 0.192 0.096 0.336 0.096 c 0.096 0 0.192 -0.048 0.288 -0.096 c 0 0 0 0 0 0 l -0.192 0.624 c 0.048 0.096 0.096 0.144 0.192 0.24 c 0 0.192 0 0.384 0 0.528 c 0 0.288 0 0.528 -0.048 0.672 c 0 0 -0.096 0 -0.144 0 c -0.336 0.144 -0.48 0.384 -0.432 0.672 l 0.192 1.2 l 0.048 0 c 0 0.048 0 0.144 0 0.192 c 0.048 0.336 0.048 0.624 0.384 1.2 c -0.096 0.24 -0.144 0.48 -0.144 0.768 c 0 0.144 0.048 0.336 0.192 0.432 c 0.048 0.048 0.048 0.048 0.096 0.096 c 0 0.096 -0.048 0.192 -0.096 0.288 c -0.048 0.144 0.048 0.288 0.192 0.432 c -0.144 0.096 -0.336 0.288 -0.384 0.432 c -0.048 0.144 -0.048 0.24 0 0.384 c -0.144 0.192 -0.144 0.48 -0.048 0.672 c 0 0.048 0.048 0.096 0.048 0.144 c -0.048 0 -0.048 0.048 -0.048 0.048 c -0.144 0.144 -0.288 0.432 -0.24 0.624 c -0.144 1.344 -0.144 1.632 0.24 1.92 c 0.096 0.672 0 1.392 -0.096 2.112 c -0.144 1.056 -0.336 2.256 0.096 3.504 c -0.144 0.24 -0.288 0.48 -0.336 0.576 c 0.048 0.288 0.048 0.624 0.048 1.008 c 0 0.576 0.048 1.2 0.144 1.68 c 0 0.048 0.048 0.096 0.096 0.144 l -0.096 0.768 c -0.144 1.152 -0.288 2.016 -0.24 2.928 c 0 0.048 0 0.144 0 0.24 c 0.048 0.144 0.144 0.288 0.288 0.336 c 0.048 0.192 0.144 0.432 0.24 0.624 c -0.192 0.096 -0.288 0.288 -0.288 0.528 c 0.048 1.008 -0.096 2.064 -0.24 3.168 c -0.096 0.768 -0.192 1.536 -0.096 2.688 c 0.096 0.096 0.288 0.192 0.432 0.24 c 0 0.192 -0.048 0.384 -0.048 0.624 c -0.048 0.624 -0.096 1.248 -0.048 1.872 c 0 0 0 0 0 0 c -0.096 0.096 -0.24 0.72 -0.192 0.864 c 0 0.144 0.048 0.24 0.144 0.336 c -0.048 0.096 0.048 0.288 0.144 0.432 c -0.096 0.336 -0.096 0.672 -0.144 1.008 c 0 0.288 -0.048 0.72 -0.096 0.816 c -0.192 0.192 -0.24 0.384 -0.096 0.624 c 0.096 0.144 0.24 0.192 0.384 0.192 c 0.096 0 0.192 0 0.288 -0.048 c 0.048 0.096 -0.048 0.48 -0.144 1.344 c 0.048 0.096 0.096 0.24 0.144 0.528 c 0 0 -0.096 0 -0.096 0 c -0.288 0 -0.48 0.24 -0.528 0.528 l -0.096 1.536 c 0 0.192 0.048 0.336 0.192 0.432 c 0 0.096 -0.096 0.72 -0.096 0.96 c -0.192 0.096 -0.288 0.288 -0.288 0.528 c 0.048 0.528 0.096 1.056 0.432 1.584 c 0.096 0.144 0.624 0.336 0.816 0.336 c 0 0 0.672 0.144 0.72 0.144 c 0.336 0 0.528 -0.192 0.624 -0.288 c 0 0 0 0 0 0 c 1.104 0 1.824 0.144 2.496 0.288 c 0.528 0.096 1.056 0.192 1.728 0.24 c 0 0 0.096 0 0.144 0 c 0.144 0 0.24 -0.048 0.336 -0.096 c 0.048 -0.048 0.096 -0.048 0.144 -0.096 c 0.432 0.048 0.768 0.192 1.152 0.384 c 0.048 0.048 0.144 0.048 0.192 0.048 c 0.144 0 0.24 -0.096 0.336 -0.192 c 0 0 0 0 0 0 c 0.24 0.144 0.528 0.24 1.152 0.336 c 0 0 0.048 0 0.048 0 c 0.096 0 0.192 -0.048 0.288 -0.096 c 0.048 0.048 0.096 0.048 0.144 0.048 c 0.096 0.048 0.192 0.048 0.288 0.048 c 0.144 0 0.288 -0.048 0.384 -0.192 c 0.144 -0.192 0.096 -0.384 -0.048 -0.528 c 0.192 -0.048 0.48 -0.096 0.672 -0.24 c 0.048 0 0.144 0.048 0.144 0.048 c 0 0.144 0.048 0.432 0.144 0.576 c 0.096 0.144 0.576 0.288 0.72 0.288 v -0.192 c 0.096 0 0.192 0.048 0.288 0.048 l 0.096 0.096 c 0.048 0 0.048 0 0.096 0 c 0.096 0 0.24 0 0.336 -0.048 c 0.528 0.048 1.104 0.048 1.632 0.048 h 0.912 c 0.672 0 1.392 0 2.064 0.096 c 0 0 0.048 0 0.048 0 c 0.24 0 0.384 -0.144 0.48 -0.384 c 0 0 0 0 0 0 c 0.432 0.048 1.056 0.144 1.68 0.24 l 0.096 -0.576 l 0.48 0.768 c 0.048 0.048 0.432 0.048 0.672 0.048 c 0.048 0 0.144 0 0.144 0 l 0.864 0.144 c 0 0 0.144 0 0.192 0 c 0.192 0.048 0.432 0.096 0.72 0.096 c 0.576 0 1.344 -0.144 1.2 -0.432 c 0.288 0.24 0.672 0.336 1.2 0.336 c 0.24 0 0.48 0 0.912 -0.096 c 0.144 0.096 0.336 0.144 0.528 0.144 c 0.096 0 0.192 0 0.288 -0.048 c 0.432 0 0.864 -0.048 1.104 -0.24 c 0.048 0 0.096 0 0.096 0 c 0 0 0.192 0 0.24 -0.048 l 1.248 -0.048 c 0.288 0 0.528 0.048 0.72 0.096 c 0.048 0 0.096 0 0.144 0 c 0.192 0 0.528 -0.048 0.624 -0.144 l 0.768 0.048 c 0.192 0 0.336 0 0.48 -0.048 c 0.288 0.144 0.672 0.24 1.152 0.24 c 0.432 0 0.864 -0.048 1.248 -0.144 c 0 0 0 0 0.048 0 c 0.096 0.192 0.336 0.336 0.576 0.336 c 0.816 0 1.248 -0.144 1.488 -0.288 c 0.24 0.048 0.48 0.096 0.768 0.096 c 0.384 0 0.768 -0.048 1.104 -0.144 c 0.24 -0.048 0.48 -0.096 0.672 -0.096 l 0.912 0.336 c 1.248 -0.192 2.448 -0.336 3.6 -0.432 c 0.048 0.144 0.096 0.24 0.192 0.336 c 0.096 0.096 0.24 0.096 0.336 0.096 c 0.048 0 0.768 -0.144 1.296 -0.192 c 0.864 -0.144 1.872 -0.336 2.688 -0.432 c 0 0 0 0 0 0.048 c 0.096 0.192 0.288 0.336 0.528 0.336 c 0 0 0.048 0 0.048 0 c 0.72 -0.096 1.392 -0.096 2.064 -0.096 h 0.912 c 0.576 0 1.152 0 1.776 -0.192 c 0.144 0.096 0.336 0.192 0.48 0.192 c 0 0 0.144 0 0.192 0 c 0.144 0 0.624 -0.144 0.72 -0.288 c 0.096 -0.144 0.192 -0.384 0.144 -0.576 l 0.192 -0.096 c 0.096 0.048 0.24 0.096 0.336 0.096 c 0.144 0 0.24 -0.048 0.384 -0.096 c -0.144 0.192 -0.192 0.48 -0.048 0.672 c 0.096 0.192 0.288 0.288 0.48 0.288 c 0.048 0 0.096 0 0.144 0 c 0.048 0 0.096 -0.048 0.144 -0.048 c 0.096 0.048 0.192 0.048 0.288 0.048 c 0 0 0.048 0 0.048 0 c 0.528 -0.048 0.816 -0.192 1.056 -0.288 c 0.096 0.144 0.288 0.192 0.432 0.192 c 0.096 0 0.144 0 0.24 -0.048 c 0.336 -0.144 0.672 -0.336 1.248 -0.336 c 0.096 0.096 0.24 0.192 0.432 0.192 c 0 0 0 0 0.048 0 c 0.672 -0.048 1.2 -0.144 1.728 -0.24 c 0.624 -0.144 1.248 -0.24 2.544 -0.288 c 0.096 0.096 0.24 0.288 0.624 0.288 c 0.048 0 1.104 -0.24 1.104 -0.24 c 0.192 0 0.384 -0.096 0.48 -0.24 c 0.336 -0.528 0.384 -1.056 0.432 -1.584 c 0 -0.144 -0.096 -0.24 -0.24 -0.336 c -0.144 -0.288 -0.192 -0.624 -0.288 -1.104 z"/></clipPath><clipPath id="clip-path-corners-square-color-0-1"><path clip-rule="evenodd" d="M 152 680v 168h 168v -168zM 176 704h 120v 120h -120z" transform="rotate(-90,236,764)"/></clipPath><clipPath id="clip-path-corners-dot-color-0-1"><path d="m 200 728 m 69.888 66.24 c 0.144 -0.096 0.192 -0.288 0.192 -0.432 l -0.096 -1.536 c 0 -0.288 -0.24 -0.528 -0.528 -0.528 c 0 0 -0.096 0 -0.096 0 c 0.048 -0.288 0.096 -0.576 0.192 -1.056 c -0.144 -0.288 -0.192 -0.576 -0.24 -0.624 c 0.048 0 0.144 0.048 0.192 0.048 c 0.192 0 0.384 -0.096 0.48 -0.24 c 0.144 -0.24 0.096 -0.528 -0.096 -0.672 c -0.048 -0.096 -0.096 -0.528 -0.096 -0.816 c 0 -0.24 -0.048 -0.48 -0.048 -0.72 c 0 0 0.048 0 0.048 0 c 0.096 -0.096 0 -0.432 0 -0.576 c 0 -0.048 0 -0.048 0 -0.096 c 0.144 -0.096 0.192 -0.24 0.24 -0.432 c 0 -0.288 0 -0.624 -0.192 -0.864 c 0 0 0 0 0 0 c 0.048 -0.624 0 -1.248 -0.048 -1.872 c 0 -0.192 -0.048 -0.432 -0.048 -0.624 c 0.144 -0.048 0.288 -0.096 0.384 -0.192 c 0.096 -0.096 0.24 -0.288 0.192 -0.48 c -0.048 -0.768 -0.144 -1.536 -0.24 -2.256 c -0.144 -1.104 -0.288 -2.16 -0.24 -3.168 c 0 -0.192 -0.096 -0.288 -0.24 -0.384 l 0.048 -0.096 c 0.048 -0.192 0.144 -0.432 0.192 -0.72 c 0.144 -0.048 0.24 -0.192 0.288 -0.336 c 0 -0.048 0.048 -0.144 0 -0.24 c 0.048 -0.912 -0.048 -1.824 -0.24 -2.976 l -0.096 -0.72 c 0.048 -0.048 0.048 -0.144 0.096 -0.192 c 0.096 -0.48 0.144 -1.104 0.144 -1.68 c 0 -0.336 0 -0.72 -0.096 -1.536 c 0 -0.048 -0.048 -0.144 -0.096 -0.192 c 0.384 -1.2 0.192 -2.352 0.048 -3.36 c -0.096 -0.72 -0.192 -1.44 -0.096 -2.112 c 0 0 0 0 0.048 0 c 0.048 0 0.144 0 0.192 -0.048 c 0.192 -0.24 0.192 -0.336 0 -2.16 c 0 -0.192 -0.048 -0.384 -0.24 -0.528 c 0 0 0.048 -0.144 0.096 -0.192 c 0.096 -0.192 0 -0.432 -0.144 -0.624 c 0 -0.096 0.048 -0.24 0 -0.288 c -0.096 -0.288 -0.336 -0.432 -0.384 -0.624 c 0.048 -0.144 0.096 -0.336 0.096 -0.48 c 0.048 -0.048 0.096 -0.048 0.144 -0.096 c 0.144 -0.096 0.192 -0.288 0.192 -0.432 c 0 -0.288 -0.096 -0.528 -0.144 -0.768 c 0.336 -0.576 0.384 -0.864 0.432 -1.488 c 0 0 0.192 -1.152 0.192 -1.152 c 0.048 -0.288 -0.192 -0.384 -0.48 -0.48 c 0 0 -0.048 0 -0.048 0 c -0.096 -0.24 -0.096 -0.48 -0.096 -0.864 c 0 -0.192 0 -0.432 -0.048 -0.672 c 0.288 -0.144 0.576 -0.624 0.624 -0.816 l -0.048 -0.048 c 0 0 0 0 0 0 c 0.24 -0.192 0.288 -0.672 0.144 -0.912 c 0.048 -0.288 0.096 -0.672 -0.096 -1.152 c 0 0 0.048 -0.048 0.048 -0.048 c 0.144 -0.144 0.24 -0.336 0.192 -0.528 c 0 -0.192 -0.192 -0.48 -0.384 -0.672 c 0 -1.776 0.048 -4.08 -0.624 -5.808 c 0.048 -0.048 0.096 -0.144 0.096 -0.192 c 0.048 -0.528 0.096 -1.104 0 -1.632 c 0.096 -0.048 0.144 -0.096 0.192 -0.144 c 0.048 -0.048 0 -0.192 0 -0.384 c 0.24 -0.096 0.384 -0.384 0.336 -0.672 l -0.24 -0.864 c 0.144 -0.144 0.24 -0.48 0.192 -0.672 c -0.096 -0.768 -0.192 -1.344 -0.384 -1.776 c 0.096 -0.048 0.192 -0.048 0.24 -0.096 c 0.144 -0.096 0.144 -0.336 0.144 -0.48 c 0 -0.144 -0.096 -0.432 -0.192 -0.528 c -0.096 -0.144 -0.384 -0.48 -0.528 -0.48 c 0 0 0 0 0 0 c 0.192 -0.048 0.336 -0.096 0.432 -0.288 c 0.048 -0.192 0.048 -0.288 -0.048 -0.432 c 0 -0.192 0.048 -0.528 -0.192 -0.912 c 0.048 -0.048 0.144 -0.096 0.192 -0.192 c 0.144 -0.192 0.096 -0.48 -0.048 -0.672 c -0.336 -0.384 -0.864 -0.624 -1.344 -0.672 c -0.288 -0.336 -0.816 -0.576 -1.44 -0.576 c -0.048 0 -0.144 0 -0.192 0 c -0.144 -0.048 -0.576 -0.192 -0.672 -0.192 c -0.24 0 -0.48 0.048 -0.672 0.192 c -0.048 0 -0.096 -0.048 -0.096 -0.048 c -0.144 -0.048 -0.384 -0.144 -0.576 -0.144 c -0.048 0 -0.096 0 -0.096 0 l -0.336 0.192 c -0.096 -0.096 -0.24 -0.144 -0.336 -0.192 c -0.096 -0.048 -0.288 -0.048 -0.432 -0.048 c -0.096 0 -0.144 0 -0.192 0.048 c -0.096 0.048 -0.192 0.144 -0.288 0.288 c -0.096 -0.144 -0.288 -0.24 -0.432 -0.24 c -0.048 0 -0.096 0 -0.144 0 c 0 0 -0.192 0.096 -0.24 0.096 c -0.048 0 -0.144 0 -0.192 0 c -0.096 0 -0.144 0 -0.192 0.048 c -0.336 0.048 -0.672 0.048 -0.96 0.192 c -0.048 0 -0.144 0 -0.24 0 c -0.24 0 -0.528 0.048 -0.864 0.192 c 0 -0.24 -0.096 -0.432 -0.288 -0.528 c -0.096 -0.048 -0.192 -0.048 -0.288 -0.048 c -0.144 0 -0.24 0.048 -0.336 0.096 c -0.048 0.048 -0.288 0.144 -0.528 0.24 c -0.24 -0.24 -0.624 -0.24 -1.056 -0.24 c -0.048 0 -0.048 0 -0.096 0 c -0.144 0 -0.336 0 -0.384 0.144 c 0 -0.192 -0.096 -0.384 -0.288 -0.48 c -0.096 -0.048 -0.192 -0.096 -0.288 -0.096 c -0.144 0 -0.288 0.048 -0.384 0.144 c -0.24 0.24 -0.912 0.24 -1.536 0.288 c -0.384 0 -0.768 0.048 -1.152 0.096 c -0.048 0 -0.048 0 -0.096 0 c -0.288 -0.048 -0.48 -0.096 -1.104 -0.336 c -0.048 0 -0.144 -0.048 -0.192 -0.048 c -0.096 0 -0.192 0 -0.24 0.048 c -0.144 0.096 -0.24 0.192 -0.24 0.336 c -0.048 0.048 -0.192 0.144 -0.384 0.192 c 0.048 -0.192 0.048 -0.336 0 -0.432 c -0.096 -0.192 -0.432 -0.384 -0.672 -0.384 c -0.048 0 -0.096 0 -0.144 0 c -0.24 0.048 -0.576 0.24 -0.528 0.528 c -0.144 0.048 -0.288 0.096 -0.432 0.144 c -0.144 -0.096 -0.24 -0.192 -0.24 -0.192 c -0.096 -0.144 -0.288 -0.288 -0.48 -0.288 c -0.048 0 -0.048 0 -0.096 0 c -0.24 0.048 -0.384 0.192 -0.432 0.384 c -0.048 0 -0.24 0.048 -0.432 0.096 c -0.096 -0.048 -0.24 -0.096 -0.336 -0.144 c 0 -0.048 0 -0.096 0 -0.144 c -0.048 -0.288 -0.288 -0.48 -0.576 -0.48 c -0.144 0 -0.864 0.192 -0.96 0.336 c -0.048 0.048 -0.096 0.144 -0.144 0.192 c 0 -0.048 -0.048 -0.048 -0.096 -0.096 c -0.096 -0.096 -0.336 -0.288 -0.48 -0.288 c 0 0 0 0 -0.048 0 c -0.384 0.048 -0.72 0.24 -1.056 0.336 c -0.144 0.048 -0.24 0.096 -0.336 0.144 c -0.096 -0.096 -0.24 -0.144 -0.384 -0.144 c -0.096 0 -0.192 0 -0.24 0.048 c -0.24 0.144 -0.72 0.144 -1.2 0.144 c -0.528 0 -1.152 0.048 -1.68 0.192 c -0.048 0 -0.144 -0.048 -0.192 -0.048 c -0.096 0 -0.192 0 -0.24 0.048 c 0 0 -0.24 0.048 -0.288 0.048 c -0.048 -0.24 -0.192 -0.48 -0.288 -0.576 c -0.096 -0.096 -0.528 -0.144 -0.816 -0.144 c -0.096 0 -1.392 -0.048 -1.392 -0.048 c -0.432 0 -1.536 0 -2.064 0.816 c -0.384 0 -0.528 -0.144 -0.72 -0.336 c -0.24 -0.192 -0.528 -0.432 -1.056 -0.432 c -0.24 0 -0.48 0.048 -0.96 0.288 c 0 0 -0.192 0.144 -0.384 0.288 c 0 0 0 -0.048 -0.048 -0.048 c -0.096 -0.192 -0.336 -0.288 -0.576 -0.288 c -0.432 0 -0.72 0.096 -0.672 0.192 c -0.288 -0.048 -0.48 -0.048 -0.624 -0.144 c -0.096 -0.048 -0.144 -0.048 -0.24 -0.048 c -0.144 0 -0.24 0.048 -0.336 0.144 c -0.144 -0.048 -0.24 -0.096 -0.384 -0.144 c -0.288 -0.096 -0.624 -0.24 -1.392 -0.24 c 0 0 -0.048 0 -0.048 0 c -0.048 0.048 -0.192 0.096 -0.288 0.144 c 0 -0.048 -0.048 -0.048 -0.048 -0.048 c -0.288 -0.144 -1.008 -0.336 -1.152 -0.336 c -0.288 0 -0.336 0.24 -0.384 0.528 c 0 0 0 0 0 0.048 c -0.192 0.048 -0.336 0.096 -0.48 0.192 c -0.048 0 -0.144 0 -0.192 0 c -0.096 0 -0.192 0 -0.288 0.048 c -0.048 -0.24 -0.288 -0.288 -0.48 -0.336 c 0 0 -0.048 0 -0.048 0 c -0.192 0 -0.48 0.192 -0.576 0.336 c -0.144 -0.048 -0.24 -0.096 -0.432 -0.096 c -0.096 0 -0.24 0 -0.384 0.048 c 0 -0.288 -0.144 -0.528 -0.432 -0.576 c -0.048 0 -0.096 0 -0.144 0 c -0.192 0 -0.384 0.096 -0.48 0.288 c 0 0.048 -0.048 0.096 -0.048 0.144 c -0.096 0.048 -0.24 0.096 -0.336 0.144 c 0 -0.144 -0.096 -0.288 -0.24 -0.384 c -0.096 -0.048 -0.192 -0.096 -0.288 -0.096 c -0.048 0 -0.096 0 -0.144 0 c 0 0 -0.864 0.24 -0.864 0.24 c -0.768 0 -1.68 -0.048 -2.208 -0.24 c -0.144 0 -0.384 -0.048 -0.576 -0.048 c -0.144 0 -0.24 0 -0.288 0.048 c -0.144 -0.144 -0.384 -0.288 -0.576 -0.288 c -0.048 0 -0.096 0 -0.144 0.048 c -0.24 0.144 -0.432 0.24 -0.336 0.48 l 0 0 c -0.048 0 -0.144 -0.048 -0.192 -0.048 c -0.048 0 -0.144 0 -0.192 0 c -0.576 0 -1.248 0.048 -1.008 0.24 c -0.336 0 -0.576 -0.096 -0.576 -0.144 c -0.144 -0.096 -0.384 -0.24 -0.576 -0.24 c -0.048 0 -0.096 0 -0.144 0.048 c -0.24 0.096 -0.48 0.192 -0.48 0.432 c -0.288 0 -0.624 0 -0.864 0.144 c -0.288 -0.144 -0.624 -0.192 -1.44 -0.336 c -0.048 0 -0.336 -0.096 -0.432 -0.096 c -0.144 0 -0.288 0.048 -0.336 0.192 c -0.144 -0.192 -0.336 -0.288 -0.528 -0.288 c -0.048 0 -0.048 0 -0.048 0 c -0.144 0 -0.384 0.048 -0.528 0.384 l -0.816 -0.336 c -0.144 0 -0.288 0.096 -0.384 0.144 c -0.192 -0.048 -0.384 -0.144 -0.624 -0.144 c -0.096 0 -0.528 0.144 -0.672 0.192 c -0.048 0 -0.144 0 -0.192 0 c -0.672 0 -1.2 0.24 -1.44 0.576 c -0.528 0.048 -1.056 0.336 -1.392 0.672 c -0.192 0.192 0 0.48 0.144 0.672 c 0 0.048 0.048 0.048 0.096 0.096 c -0.384 0.432 -0.336 0.816 -0.24 0.864 c -0.144 0.144 -0.24 0.24 -0.144 0.432 c 0.048 0.192 0.144 0.192 0.288 0.24 c 0 0.144 -0.336 0.576 -0.624 0.96 c -0.096 0.144 -0.144 0.288 -0.096 0.432 c 0.048 0.144 0.096 0.288 0.24 0.336 c 0.048 0.048 0.144 0.048 0.24 0.096 c -0.24 0.48 -0.336 1.152 -0.432 2.112 c -0.048 0.192 0.096 0.24 0.24 0.24 l -0.24 0.96 c -0.048 0.24 0.144 0.336 0.336 0.432 c -0.048 0.24 -0.096 0.576 0 0.672 c 0.048 0.048 0.096 0.096 0.192 0.144 c -0.096 0.528 -0.096 1.104 0.096 1.776 c 0.048 0.096 0.048 0.192 0.096 0.24 c -0.672 1.824 -0.672 4.176 -0.624 5.952 l 0 0.672 h 0.096 l -0.24 0.24 c 0 0.048 0 0.048 0 0.096 c -0.192 0.528 -0.144 0.96 -0.096 1.536 c -0.096 0.192 -0.048 0.528 0.192 0.672 c 0.096 0.048 0.192 0.096 0.336 0.096 c 0.096 0 0.192 -0.048 0.288 -0.096 c 0 0 0 0 0 0 l -0.192 0.624 c 0.048 0.096 0.096 0.144 0.192 0.24 c 0 0.192 0 0.384 0 0.528 c 0 0.288 0 0.528 -0.048 0.672 c 0 0 -0.096 0 -0.144 0 c -0.336 0.144 -0.48 0.384 -0.432 0.672 l 0.192 1.2 l 0.048 0 c 0 0.048 0 0.144 0 0.192 c 0.048 0.336 0.048 0.624 0.384 1.2 c -0.096 0.24 -0.144 0.48 -0.144 0.768 c 0 0.144 0.048 0.336 0.192 0.432 c 0.048 0.048 0.048 0.048 0.096 0.096 c 0 0.096 -0.048 0.192 -0.096 0.288 c -0.048 0.144 0.048 0.288 0.192 0.432 c -0.144 0.096 -0.336 0.288 -0.384 0.432 c -0.048 0.144 -0.048 0.24 0 0.384 c -0.144 0.192 -0.144 0.48 -0.048 0.672 c 0 0.048 0.048 0.096 0.048 0.144 c -0.048 0 -0.048 0.048 -0.048 0.048 c -0.144 0.144 -0.288 0.432 -0.24 0.624 c -0.144 1.344 -0.144 1.632 0.24 1.92 c 0.096 0.672 0 1.392 -0.096 2.112 c -0.144 1.056 -0.336 2.256 0.096 3.504 c -0.144 0.24 -0.288 0.48 -0.336 0.576 c 0.048 0.288 0.048 0.624 0.048 1.008 c 0 0.576 0.048 1.2 0.144 1.68 c 0 0.048 0.048 0.096 0.096 0.144 l -0.096 0.768 c -0.144 1.152 -0.288 2.016 -0.24 2.928 c 0 0.048 0 0.144 0 0.24 c 0.048 0.144 0.144 0.288 0.288 0.336 c 0.048 0.192 0.144 0.432 0.24 0.624 c -0.192 0.096 -0.288 0.288 -0.288 0.528 c 0.048 1.008 -0.096 2.064 -0.24 3.168 c -0.096 0.768 -0.192 1.536 -0.096 2.688 c 0.096 0.096 0.288 0.192 0.432 0.24 c 0 0.192 -0.048 0.384 -0.048 0.624 c -0.048 0.624 -0.096 1.248 -0.048 1.872 c 0 0 0 0 0 0 c -0.096 0.096 -0.24 0.72 -0.192 0.864 c 0 0.144 0.048 0.24 0.144 0.336 c -0.048 0.096 0.048 0.288 0.144 0.432 c -0.096 0.336 -0.096 0.672 -0.144 1.008 c 0 0.288 -0.048 0.72 -0.096 0.816 c -0.192 0.192 -0.24 0.384 -0.096 0.624 c 0.096 0.144 0.24 0.192 0.384 0.192 c 0.096 0 0.192 0 0.288 -0.048 c 0.048 0.096 -0.048 0.48 -0.144 1.344 c 0.048 0.096 0.096 0.24 0.144 0.528 c 0 0 -0.096 0 -0.096 0 c -0.288 0 -0.48 0.24 -0.528 0.528 l -0.096 1.536 c 0 0.192 0.048 0.336 0.192 0.432 c 0 0.096 -0.096 0.72 -0.096 0.96 c -0.192 0.096 -0.288 0.288 -0.288 0.528 c 0.048 0.528 0.096 1.056 0.432 1.584 c 0.096 0.144 0.624 0.336 0.816 0.336 c 0 0 0.672 0.144 0.72 0.144 c 0.336 0 0.528 -0.192 0.624 -0.288 c 0 0 0 0 0 0 c 1.104 0 1.824 0.144 2.496 0.288 c 0.528 0.096 1.056 0.192 1.728 0.24 c 0 0 0.096 0 0.144 0 c 0.144 0 0.24 -0.048 0.336 -0.096 c 0.048 -0.048 0.096 -0.048 0.144 -0.096 c 0.432 0.048 0.768 0.192 1.152 0.384 c 0.048 0.048 0.144 0.048 0.192 0.048 c 0.144 0 0.24 -0.096 0.336 -0.192 c 0 0 0 0 0 0 c 0.24 0.144 0.528 0.24 1.152 0.336 c 0 0 0.048 0 0.048 0 c 0.096 0 0.192 -0.048 0.288 -0.096 c 0.048 0.048 0.096 0.048 0.144 0.048 c 0.096 0.048 0.192 0.048 0.288 0.048 c 0.144 0 0.288 -0.048 0.384 -0.192 c 0.144 -0.192 0.096 -0.384 -0.048 -0.528 c 0.192 -0.048 0.48 -0.096 0.672 -0.24 c 0.048 0 0.144 0.048 0.144 0.048 c 0 0.144 0.048 0.432 0.144 0.576 c 0.096 0.144 0.576 0.288 0.72 0.288 v -0.192 c 0.096 0 0.192 0.048 0.288 0.048 l 0.096 0.096 c 0.048 0 0.048 0 0.096 0 c 0.096 0 0.24 0 0.336 -0.048 c 0.528 0.048 1.104 0.048 1.632 0.048 h 0.912 c 0.672 0 1.392 0 2.064 0.096 c 0 0 0.048 0 0.048 0 c 0.24 0 0.384 -0.144 0.48 -0.384 c 0 0 0 0 0 0 c 0.432 0.048 1.056 0.144 1.68 0.24 l 0.096 -0.576 l 0.48 0.768 c 0.048 0.048 0.432 0.048 0.672 0.048 c 0.048 0 0.144 0 0.144 0 l 0.864 0.144 c 0 0 0.144 0 0.192 0 c 0.192 0.048 0.432 0.096 0.72 0.096 c 0.576 0 1.344 -0.144 1.2 -0.432 c 0.288 0.24 0.672 0.336 1.2 0.336 c 0.24 0 0.48 0 0.912 -0.096 c 0.144 0.096 0.336 0.144 0.528 0.144 c 0.096 0 0.192 0 0.288 -0.048 c 0.432 0 0.864 -0.048 1.104 -0.24 c 0.048 0 0.096 0 0.096 0 c 0 0 0.192 0 0.24 -0.048 l 1.248 -0.048 c 0.288 0 0.528 0.048 0.72 0.096 c 0.048 0 0.096 0 0.144 0 c 0.192 0 0.528 -0.048 0.624 -0.144 l 0.768 0.048 c 0.192 0 0.336 0 0.48 -0.048 c 0.288 0.144 0.672 0.24 1.152 0.24 c 0.432 0 0.864 -0.048 1.248 -0.144 c 0 0 0 0 0.048 0 c 0.096 0.192 0.336 0.336 0.576 0.336 c 0.816 0 1.248 -0.144 1.488 -0.288 c 0.24 0.048 0.48 0.096 0.768 0.096 c 0.384 0 0.768 -0.048 1.104 -0.144 c 0.24 -0.048 0.48 -0.096 0.672 -0.096 l 0.912 0.336 c 1.248 -0.192 2.448 -0.336 3.6 -0.432 c 0.048 0.144 0.096 0.24 0.192 0.336 c 0.096 0.096 0.24 0.096 0.336 0.096 c 0.048 0 0.768 -0.144 1.296 -0.192 c 0.864 -0.144 1.872 -0.336 2.688 -0.432 c 0 0 0 0 0 0.048 c 0.096 0.192 0.288 0.336 0.528 0.336 c 0 0 0.048 0 0.048 0 c 0.72 -0.096 1.392 -0.096 2.064 -0.096 h 0.912 c 0.576 0 1.152 0 1.776 -0.192 c 0.144 0.096 0.336 0.192 0.48 0.192 c 0 0 0.144 0 0.192 0 c 0.144 0 0.624 -0.144 0.72 -0.288 c 0.096 -0.144 0.192 -0.384 0.144 -0.576 l 0.192 -0.096 c 0.096 0.048 0.24 0.096 0.336 0.096 c 0.144 0 0.24 -0.048 0.384 -0.096 c -0.144 0.192 -0.192 0.48 -0.048 0.672 c 0.096 0.192 0.288 0.288 0.48 0.288 c 0.048 0 0.096 0 0.144 0 c 0.048 0 0.096 -0.048 0.144 -0.048 c 0.096 0.048 0.192 0.048 0.288 0.048 c 0 0 0.048 0 0.048 0 c 0.528 -0.048 0.816 -0.192 1.056 -0.288 c 0.096 0.144 0.288 0.192 0.432 0.192 c 0.096 0 0.144 0 0.24 -0.048 c 0.336 -0.144 0.672 -0.336 1.248 -0.336 c 0.096 0.096 0.24 0.192 0.432 0.192 c 0 0 0 0 0.048 0 c 0.672 -0.048 1.2 -0.144 1.728 -0.24 c 0.624 -0.144 1.248 -0.24 2.544 -0.288 c 0.096 0.096 0.24 0.288 0.624 0.288 c 0.048 0 1.104 -0.24 1.104 -0.24 c 0.192 0 0.384 -0.096 0.48 -0.24 c 0.336 -0.528 0.384 -1.056 0.432 -1.584 c 0 -0.144 -0.096 -0.24 -0.24 -0.336 c -0.144 -0.288 -0.192 -0.624 -0.288 -1.104 z"/></clipPath></defs><defs/><text x="50%" y="1080" fill="#000000" dominant-baseline="middle" text-anchor="middle" font-family="sans-serif" font-size="90" font-weight="600">  </text><rect x="112" y="112" height="777" width="776" clip-path="url('#clip-path-background-color')" fill="url('#background-color')"/><rect x="152" y="152" height="696" width="696" clip-path="url('#clip-path-dot-color')" fill="url('#dot-color')"/><rect x="152" y="152" height="168" width="168" clip-path="url('#clip-path-corners-square-color-0-0')" fill="#000000"/><rect x="200" y="200" height="72" width="72" clip-path="url('#clip-path-corners-dot-color-0-0')" fill="#000000"/><rect x="680" y="152" height="168" width="168" clip-path="url('#clip-path-corners-square-color-1-0')" fill="#000000"/><rect x="728" y="200" height="72" width="72" clip-path="url('#clip-path-corners-dot-color-1-0')" fill="#000000"/><rect x="152" y="680" height="168" width="168" clip-path="url('#clip-path-corners-square-color-0-1')" fill="#000000"/><rect x="200" y="728" height="72" width="72" clip-path="url('#clip-path-corners-dot-color-0-1')" fill="#000000"/></svg>